<svg xmlns="http://www.w3.org/2000/svg" width="25" height="25" viewBox="0 0 25 25" fill="none">
  <g clip-path="url(#clip0_59_7329)">
    <path d="M12.237 22.8784C18.1471 22.8768 22.9369 18.0845 22.9353 12.1743C22.9337 6.26423 18.1414 1.47442 12.2312 1.47601C6.32112 1.4776 1.53132 6.26998 1.5329 12.1801C1.53449 18.0902 6.32687 22.88 12.237 22.8784Z" fill="#4B4C5A"/>
    <path d="M12.231 0.177199C9.85759 0.177836 7.5377 0.882246 5.56466 2.20135C3.59163 3.52046 2.05406 5.39502 1.1464 7.58797C0.238733 9.78093 0.00174103 12.1938 0.465388 14.5214C0.929036 16.8491 2.0725 18.987 3.75118 20.6648C5.42986 22.3425 7.56836 23.4849 9.89626 23.9473C12.2242 24.4096 14.6369 24.1714 16.8294 23.2625C19.0218 22.3537 20.8956 20.8151 22.2136 18.8414C23.5317 16.8676 24.2348 14.5474 24.2342 12.174C24.2383 10.6027 23.933 9.04597 23.3355 7.5927C22.7381 6.13943 21.8602 4.81807 20.7521 3.70406C19.6439 2.59005 18.3272 1.70522 16.8772 1.10007C15.4271 0.49493 13.872 0.181331 12.3007 0.17718L12.231 0.177199ZM12.4377 12.5839L11.1894 16.7973L17.8722 16.7955C17.9165 16.794 17.9606 16.8012 18.0021 16.8167C18.0436 16.8322 18.0816 16.8557 18.114 16.8859C18.1464 16.9161 18.1725 16.9524 18.1909 16.9927C18.2092 17.0331 18.2195 17.0766 18.221 17.1209L18.221 17.2313L17.6404 19.2363C17.6148 19.3311 17.5578 19.4144 17.4786 19.4725C17.3994 19.5306 17.3028 19.56 17.2047 19.556L6.97708 19.5588L8.6898 13.7181L6.77228 14.2997L7.20776 12.9631L9.12528 12.3814L11.5347 4.18707C11.5612 4.09279 11.6185 4.01009 11.6975 3.95214C11.7765 3.8942 11.8726 3.86435 11.9705 3.86734L14.5564 3.86665C14.6007 3.86508 14.6448 3.87226 14.6863 3.88777C14.7278 3.90327 14.7658 3.92681 14.7982 3.95702C14.8306 3.98724 14.8567 4.02354 14.8751 4.06386C14.8934 4.10417 14.9037 4.14771 14.9052 4.19198L14.9052 4.30239L12.8732 11.2182L14.7907 10.6366L14.3843 12.0313L12.4377 12.5839Z" fill="white"/>
  </g>
  <defs>
    <clipPath id="clip0_59_7329">
      <rect width="24" height="24" fill="white" transform="translate(0.230957 0.18042) rotate(-0.0153792)"/>
    </clipPath>
  </defs>
</svg>