<svg xmlns="http://www.w3.org/2000/svg" width="25" height="25" viewBox="0 0 25 25" fill="none">
  <path d="M12.2374 24.2502C18.8648 24.2484 24.236 18.8744 24.2342 12.247C24.2324 5.61956 18.8584 0.248418 12.231 0.250197C5.60354 0.251976 0.232399 5.626 0.234178 12.2534C0.235957 18.8808 5.60998 24.252 12.2374 24.2502Z" fill="#988430"/>
  <path d="M12.2373 23.8658C18.6525 23.8641 23.8515 18.6622 23.8498 12.2471C23.8481 5.83195 18.6462 0.632856 12.2311 0.634577C5.81597 0.636299 0.616874 5.83818 0.618596 12.2533C0.620318 18.6684 5.8222 23.8675 12.2373 23.8658Z" fill="#7A6A2A"/>
  <path d="M12.2373 23.621C18.5173 23.6193 23.6068 18.5271 23.6052 12.2471C23.6035 5.96714 18.5112 0.877586 12.2312 0.879272C5.95127 0.880958 0.861718 5.97324 0.863404 12.2532C0.865089 18.5332 5.95737 23.6227 12.2373 23.621Z" fill="#BA9F33"/>
  <path fill-rule="evenodd" clip-rule="evenodd" d="M5.48039 10.9704C5.41241 10.9084 5.34058 10.8462 5.27452 10.7841C5.20845 10.7221 5.14059 10.6599 5.07261 10.5978L4.87057 10.4059C4.83754 10.3729 4.80259 10.3438 4.76956 10.3107C4.73652 10.2816 4.69773 10.2486 4.6647 10.2194C4.3966 9.96517 4.12696 9.7109 3.86258 9.45651C4.13643 9.70693 4.40453 9.95556 4.67839 10.2097L4.77352 10.3049C4.80656 10.3378 4.84151 10.367 4.87454 10.4L5.07645 10.5863C5.14443 10.6484 5.2105 10.7105 5.27848 10.7782C5.34647 10.8459 5.41253 10.9083 5.48052 10.9702L5.48039 10.9704ZM1.92313 10.933C1.92313 10.933 2.89788 11.0336 3.37367 11.1014C3.81439 11.1635 5.19314 11.3747 5.19314 11.3747L1.92313 10.933ZM1.92313 10.933C2.19693 10.9562 2.47073 10.9852 2.74453 11.0143C2.88431 11.0278 3.01833 11.0433 3.15235 11.0568L3.35805 11.0802C3.42602 11.0898 3.49207 11.0995 3.56004 11.1092L4.37569 11.239L4.78339 11.3069C4.91741 11.3301 5.05144 11.3555 5.19122 11.3787C5.0572 11.3652 4.91742 11.3458 4.7834 11.3263L4.3757 11.2682L3.56005 11.1481C3.49208 11.1384 3.42603 11.1247 3.35806 11.1151L3.15223 11.0915C3.01821 11.078 2.87843 11.0586 2.74441 11.043C2.47061 11.0102 2.19681 10.9752 1.923 10.9326L1.92313 10.933ZM5.09618 11.6287C5.09618 11.6287 4.05549 11.8932 3.70402 11.9943C3.35845 12.0895 2.31188 12.4082 2.31188 12.4082L5.09605 11.6289L5.09618 11.6287Z" fill="#CFB66C"/>
  <path fill-rule="evenodd" clip-rule="evenodd" d="M5.09616 11.6288C4.86513 11.6968 4.63539 11.7629 4.40104 11.8252L3.70592 12.0117C3.4749 12.0798 3.24516 12.1459 3.01478 12.2139L2.6692 12.3091C2.55465 12.3422 2.43818 12.3712 2.31979 12.4044C2.43421 12.366 2.55081 12.3267 2.66536 12.2936L3.01093 12.1829C3.24195 12.1109 3.47169 12.0429 3.70207 11.971C3.93694 11.9127 4.16809 11.8505 4.40295 11.7941C4.62617 11.7377 4.86116 11.6814 5.09616 11.6289L5.09616 11.6288ZM2.45782 13.049C2.57224 13.0062 3.89252 12.3904 4.1993 12.2466C4.35288 12.1746 4.7993 12.0161 4.7993 12.0161L2.45782 13.049Z" fill="#CFB66C"/>
  <path fill-rule="evenodd" clip-rule="evenodd" d="M2.45768 13.049C2.55853 13.0106 2.65375 12.9636 2.75076 12.9189L3.03809 12.7848L3.61478 12.507C3.80676 12.4157 3.99335 12.3149 4.19135 12.2291C4.29233 12.1864 4.39331 12.1515 4.49416 12.1184L4.64775 12.0699C4.7001 12.0563 4.74874 12.0407 4.80134 12.0271C4.60936 12.1184 4.40727 12.1961 4.21504 12.2854C4.02307 12.3807 3.82674 12.4584 3.62861 12.5439L3.04232 12.8022C2.84547 12.882 2.6535 12.9674 2.45755 13.049L2.45768 13.049ZM2.58582 13.5866C2.58582 13.5866 3.78167 12.8853 4.19325 12.6599C4.40877 12.5396 5.10577 12.1937 5.10577 12.1937L2.58582 13.5866Z" fill="#CFB66C"/>
  <path fill-rule="evenodd" clip-rule="evenodd" d="M2.58607 13.5868C2.78789 13.4624 2.99368 13.3362 3.19947 13.208L3.50662 13.0214C3.61144 12.9593 3.71241 12.901 3.81928 12.8389C3.92409 12.7767 4.02507 12.7146 4.1318 12.6563C4.18261 12.6249 4.23585 12.5976 4.29101 12.5747L4.45406 12.4931C4.66959 12.3883 4.88511 12.2813 5.11229 12.19C4.9065 12.3202 4.69481 12.431 4.48326 12.5455C4.37844 12.6038 4.27158 12.6563 4.16676 12.7145C4.06195 12.7728 3.96097 12.835 3.85411 12.8914C3.74929 12.9535 3.64831 13.0118 3.54158 13.0681L3.22508 13.241L2.58632 13.5868L2.58607 13.5868ZM5.09633 12.3472C5.09633 12.3472 4.3528 12.9183 4.11208 13.1009C3.87136 13.2834 3.16276 13.7963 3.16276 13.7963L5.09633 12.3472Z" fill="#CFB66C"/>
  <path fill-rule="evenodd" clip-rule="evenodd" d="M9.36557 16.95L8.98484 16.2297L9.20591 15.3287L10.7844 14.7186L10.1121 13.3402L10.4438 11.9479L11.0668 10.701L12.993 10.3976L14.4081 9.04774L17.4645 9.27796L18.0653 12.5458L16.9111 16.6606L16.2535 18.791L13.5855 18.8927L12.3465 18.0348L10.8958 17.4292L9.36557 16.95Z" fill="#E2CC85"/>
  <path fill-rule="evenodd" clip-rule="evenodd" d="M14.0451 16.9255C14.0451 16.9255 13.6761 17.0945 13.0468 17.0558C12.8646 16.8112 11.5889 16.697 11.5889 16.697C11.5889 16.697 11.4296 16.6485 11.1481 16.7651C10.8647 16.8804 10.5967 16.8662 10.3462 16.9284C10.0957 16.9905 9.84691 16.6644 9.65489 16.5965C9.46287 16.5248 9.20824 16.352 9.20824 16.352L8.67062 16.2997L7.59095 15.8437L5.87542 14.1355L5.40956 14.8652L5.26606 15.7681L5.78488 16.8379L7.18132 18.1094L9.90381 18.7998L11.5172 18.324L13.5384 17.4691L14.0451 16.9253L14.0451 16.9255Z" fill="#F1D789"/>
  <path fill-rule="evenodd" clip-rule="evenodd" d="M4.37156 10.8892L4.71688 9.84255L5.12848 9.1666L6.45453 9.05553L6.05676 10.2169L4.94868 12.19L5.40931 13.951L4.59394 14.3589L4.34321 13.9746L4.14112 13.0931L4.12728 12.1028L4.37156 10.8892Z" fill="#F4ECB4"/>
  <path fill-rule="evenodd" clip-rule="evenodd" d="M5.86056 16.8559L5.60613 16.5006C5.60613 16.5006 5.53811 16.3317 5.57699 16.1841C5.61535 16.0346 5.60984 16.0248 5.5905 15.9685C5.57115 15.9122 5.4079 15.7181 5.41759 15.551C5.42714 15.3821 5.40396 15.3257 5.52808 15.1918C5.65809 15.0617 5.61925 14.8365 5.61925 14.8365L5.78824 14.9413L5.82662 14.883C5.82662 14.883 5.88871 14.9315 5.88873 15.0073C5.90227 14.9024 5.84582 14.417 5.97392 14.3063C6.10202 14.1957 6.32939 14.8246 6.32939 14.8246L6.18937 13.912L5.82982 12.9763L5.19074 12.1221L5.15209 11.1803L5.15207 11.0987C5.15207 11.0987 4.85894 11.5494 4.7775 11.9052C4.71933 12.1499 4.85918 12.4469 4.83022 12.7984C4.80689 13.148 4.77783 13.1207 4.86324 13.2592C4.94866 13.3977 5.1566 13.6824 5.07512 13.8883C5.00336 14.0651 4.75859 13.9408 4.75859 13.9408C4.75859 13.9408 4.71012 14.0845 4.64409 14.137C4.62077 14.0516 4.59554 13.9972 4.54893 13.945C4.54497 13.978 4.53538 14.0227 4.53538 14.0227C4.53538 14.0227 4.49259 13.8887 4.4498 13.7197C4.39163 13.4946 4.32934 13.1975 4.27297 13.0383C4.2497 13.1296 4.19154 13.4072 4.19154 13.4072L4.22468 13.8345L4.38407 14.4208L4.53777 14.8048L4.6874 15.2746L4.8174 15.5902L4.9223 15.831L5.01371 16.3728L5.45454 16.8386L5.68957 16.9435L5.8603 16.856L5.86056 16.8559Z" fill="#F3E19D"/>
  <path fill-rule="evenodd" clip-rule="evenodd" d="M4.60257 10.0348C4.60257 10.0348 4.28617 10.5725 4.19518 11.1145C4.10419 11.6565 4.02268 12.2292 4.08048 12.9669C4.13892 13.7107 4.24976 14.1669 4.33919 14.4931C4.49294 15.0349 4.89096 15.7882 4.89096 15.7882L4.90452 15.759C4.83762 15.6323 4.78421 15.4989 4.74518 15.361C4.69265 15.1552 4.67313 14.9106 4.62459 14.7999C4.5818 14.6893 4.50997 14.5941 4.47499 14.4582C4.44193 14.3281 4.4365 14.1223 4.33508 13.969C4.29231 13.9068 4.23979 13.7437 4.22426 13.5807C4.20474 13.3359 4.23385 13.0621 4.21049 12.837C4.16764 12.4622 4.13851 12.2079 4.17725 12.0116C4.21598 11.8154 4.41794 11.2583 4.54211 10.8155C4.62357 10.532 4.57486 10.2931 4.7243 10.0464C4.87374 9.8018 4.96507 9.58622 4.99793 9.43671C5.03629 9.30076 4.60206 10.0348 4.60206 10.0348L4.60257 10.0348Z" fill="#F2E8B0"/>
  <path fill-rule="evenodd" clip-rule="evenodd" d="M6.10336 9.8188C6.10336 9.8188 5.9403 9.86749 5.86263 9.95289C5.78496 10.0344 5.75195 10.1024 5.64716 10.2403C5.54236 10.3782 5.5365 10.4908 5.45104 10.6637C5.36571 10.8326 5.17737 11.087 5.15409 11.1783C5.13082 11.2696 5.09215 11.6967 5.0437 11.8987C5.001 12.1007 5.09233 12.3493 5.09233 12.3493L5.20291 12.3258C5.20291 12.3258 5.20295 12.4695 5.3137 12.5667C5.42432 12.6617 5.44366 12.2442 5.44366 12.2442L5.85685 10.848L6.47997 10.4245L6.54785 10.0827L6.10311 9.8188L6.10336 9.8188Z" fill="#F5EEC0"/>
  <path fill-rule="evenodd" clip-rule="evenodd" d="M6.40659 10.4518C6.40659 10.4518 6.11334 10.4712 5.96976 10.5762C5.91153 10.6188 5.88824 10.6538 5.82617 10.7063C5.71164 10.8014 5.59506 10.8889 5.5389 11.0136C5.47672 11.1377 5.4088 11.3262 5.36231 11.6815C5.34289 11.831 5.34293 11.9689 5.32939 12.0893C5.30998 12.2524 5.28096 12.3825 5.29647 12.4733C5.31598 12.6597 5.50826 12.7568 5.52701 12.9684L5.92503 12.7664L6.29942 11.2886L7.09544 10.7891L6.64475 10.2844L6.40607 10.4509L6.40659 10.4518Z" fill="#E6DB9D"/>
  <path fill-rule="evenodd" clip-rule="evenodd" d="M4.30901 20.4032C4.31067 20.3886 4.31233 20.374 4.31399 20.359C4.37196 19.8598 4.38172 19.4815 4.42428 19.2445C4.48627 18.9086 4.52899 18.7837 4.51923 18.658C4.5056 18.4561 4.49008 18.3086 4.50949 18.1532C4.53849 17.9473 4.74041 17.7027 4.7346 17.5337C4.7306 17.3997 4.66261 17.3124 4.60435 17.2309C4.54608 17.1494 4.49947 17.0814 4.49947 17.0814C4.49947 17.0814 4.89748 16.8075 4.89334 15.7046C4.90147 15.7068 4.9093 15.7101 4.91664 15.7143L5.11289 16.2714L5.24695 16.4344L5.76177 17.3935L6.42408 18.0362L7.40282 18.6941L8.01663 19.3617L8.07919 21.1423L7.27755 22.1833L7.14628 22.4211C6.10278 21.8976 5.14583 21.217 4.30888 20.4031L4.30901 20.4032Z" fill="#E5CB7A"/>
  <path fill-rule="evenodd" clip-rule="evenodd" d="M6.7592 22.106C6.7592 22.106 6.77271 21.8847 6.9552 21.7409C6.9844 21.7894 7.00374 21.8361 6.99799 21.8709C7.03099 21.8128 7.26193 21.4399 7.78428 21.3426C8.30662 21.2473 8.43272 20.8668 8.43272 20.8668L9.54106 19.8587L10.8087 18.6914L12.3503 18.1492L13.0708 17.9722C13.0708 17.9722 13.0844 18.0247 13.0573 18.1412C13.1912 18.1315 13.4882 18.0635 13.7969 17.9546C13.9212 17.9061 14.0378 17.8866 14.0999 17.9507C14.1912 18.036 14.2048 18.238 14.2106 18.3583C14.3601 18.3253 14.5329 18.1816 14.6714 18.1951C14.8928 18.2184 15.089 18.4786 15.3143 18.4785C15.6113 18.4784 15.7452 18.2958 15.953 18.152C16.0773 18.0666 16.2558 17.96 16.3568 17.8879C16.5975 17.711 19.1449 16.9317 19.1449 16.9317L20.0381 16.9897L20.1821 17.9489L20.106 20.4565C20.0965 20.4656 20.087 20.475 20.0774 20.4841L16.0168 22.6063L10.3876 23.4708C9.12653 23.2651 7.90952 22.8469 6.78842 22.2339L6.75958 22.1059L6.7592 22.106Z" fill="#D8C173"/>
  <path fill-rule="evenodd" clip-rule="evenodd" d="M4.65049 20.7221C4.73044 20.5548 4.80234 20.4149 4.815 20.3648C4.82501 20.4657 4.84337 20.687 4.8803 20.9222C4.80289 20.8565 4.72628 20.7897 4.65049 20.722L4.65049 20.7221Z" fill="#F1D789"/>
  <path fill-rule="evenodd" clip-rule="evenodd" d="M8.76336 23.0808L9.49137 22.8781L9.55346 22.8975C9.55346 22.8975 9.58649 22.917 9.58651 22.9829C9.67776 22.9305 9.75546 22.9401 9.81177 22.9053C9.84084 22.9673 9.86995 23.1731 9.99821 23.1983C10.1321 23.2275 10.2758 23.14 10.4215 23.0294C10.565 22.9148 10.7286 22.771 10.8524 22.7127C10.8978 22.7962 10.938 22.8824 10.9729 22.9709C11.1359 22.8408 11.4193 22.3126 11.8231 22.3221C11.9398 22.0462 12.1347 21.8106 12.3838 21.6443C12.7586 21.3898 12.9934 21.3703 13.2867 21.3935C13.4031 21.2422 13.5466 21.1138 13.7099 21.0148C13.7584 21.0342 13.8924 21.1157 14.0595 21.038C14.2284 20.9604 14.4185 20.6593 14.669 20.6204C14.804 20.6018 14.9412 20.6306 15.0574 20.7019C15.0574 20.7019 15.7868 19.9773 16.2901 19.7364C16.2707 19.6782 16.2318 19.4588 16.8219 18.9731C16.8549 19.0023 16.8317 19.0838 16.855 19.0883C16.8646 19.0883 17.0085 19.0262 17.1908 18.8862C17.416 18.7174 17.6858 18.5405 17.8489 18.492C18.156 18.4006 18.482 18.5869 18.482 18.5869C18.5097 18.5675 18.5406 18.553 18.5732 18.5441C18.6508 18.5305 18.7071 18.5208 18.7498 18.5057C18.746 18.6067 18.8024 18.7794 18.75 18.929C18.8108 18.9631 18.8752 18.9905 18.942 19.0105C18.9091 19.0823 18.8372 19.2648 18.7169 19.3523C18.8178 19.4008 18.8314 19.4571 18.9751 19.5058C18.9169 19.5874 18.8216 19.7273 18.7791 19.8131C18.7364 19.9043 18.583 20.283 18.5151 20.4266C18.4433 20.5704 18.3464 20.8345 18.2997 20.8875C18.253 20.9405 18.0842 21.1652 17.9542 21.2758C18.0694 21.233 18.5406 21.0893 18.7405 21.0348C18.681 21.1221 18.3795 21.5698 18.0895 22.0004C16.701 22.8331 15.151 23.3604 13.5427 23.547C11.9344 23.7336 10.3048 23.5753 8.76247 23.0827L8.76336 23.0808Z" fill="#E0CD81"/>
  <path fill-rule="evenodd" clip-rule="evenodd" d="M6.45457 10.3993C6.45457 10.3993 6.28574 10.3993 6.25272 10.4227C6.2197 10.446 6.4217 10.4945 6.48379 10.5178C6.54587 10.5411 6.67992 10.6478 6.71488 10.7333C6.74793 10.8148 7.9286 11.2902 7.9286 11.2902L8.76353 11.2472L9.0513 10.8494L8.50359 10.37L8.88728 9.23782L8.37863 9.31949L7.15553 10.0494L6.54196 10.2846L6.45457 10.3993Z" fill="#DFC57C"/>
  <path fill-rule="evenodd" clip-rule="evenodd" d="M8.28806 10.7736C8.30014 10.7932 8.31714 10.8092 8.33736 10.8201C8.35759 10.831 8.38032 10.8364 8.40328 10.8357C8.57608 10.8357 8.73519 10.8784 8.80127 10.9656C8.91202 11.1055 9.21896 11.552 9.21896 11.552L9.95298 11.8159L10.0001 10.9516L9.19804 10.3947L8.28549 10.7308L8.2855 10.7735L8.28755 10.7735L8.28806 10.7736Z" fill="#E5CC7C"/>
  <path fill-rule="evenodd" clip-rule="evenodd" d="M8.1443 11.094C8.1443 11.094 8.27819 11.1037 8.44714 11.0415C8.61608 10.9792 8.89368 10.8452 9.01414 10.8977C9.18299 10.9695 9.14811 11.1947 9.33082 11.3968C9.44144 11.5211 9.64343 11.5172 9.75802 11.6512C9.87262 11.7851 10.2667 11.7228 10.2667 11.7228L10.4164 12.5292L9.8167 13.2984L9.62074 14.2537L8.80947 14.2539L8.06827 13.9601L7.70298 13.077L7.88527 12.1838L8.1443 11.094Z" fill="#D2C281"/>
  <path fill-rule="evenodd" clip-rule="evenodd" d="M9.71346 11.1324C9.73358 11.1386 9.75449 11.1419 9.77554 11.1421C9.75225 11.1616 9.70362 11.2042 9.7231 11.3149C9.74259 11.4256 9.80471 11.5654 9.75238 11.6508C9.79418 11.6965 9.82536 11.7508 9.84369 11.81C9.87674 11.9052 9.88649 11.9925 10.1019 12.0061C10.0708 12.0253 10.0422 12.0481 10.0166 12.0741C10.0166 12.0741 10.1661 12.2041 10.2419 12.3244C10.3195 12.3211 10.5253 12.257 10.5253 12.257L10.568 12.2862L10.6593 12.2478C10.6593 12.2478 10.5739 12.2148 10.6359 12.007C10.6941 11.8245 10.7466 11.8342 10.7511 11.8206C10.7556 11.8071 10.7938 11.6148 10.7938 11.5371C10.8228 11.4362 10.846 11.1294 10.846 11.1294L10.7837 10.4518L10.4342 10.2402L10.15 9.96594L9.88211 10.4708L9.70565 10.6469L9.69219 11.0838L9.71346 11.1324Z" fill="#E2C270"/>
  <path fill-rule="evenodd" clip-rule="evenodd" d="M10.5542 10.5653C10.5542 10.5653 10.6164 10.7419 10.6398 10.8778C10.6481 10.8514 10.6526 10.824 10.6534 10.7963C10.6534 10.7963 10.7019 11.0643 10.7116 11.175C10.731 11.171 10.75 11.1653 10.7543 11.1846C10.7587 11.2039 10.803 11.4196 10.7928 11.5399C10.8736 11.4065 10.9855 11.2946 11.1189 11.2137C11.1966 11.165 11.2878 11.1127 11.383 11.1087C11.5325 11.1048 11.6412 11.2038 11.8199 11.2038C12.2509 11.2037 12.6412 10.887 12.9286 10.7899C13.1401 10.7179 13.3226 10.6655 13.4507 10.5489C13.5129 10.4965 13.6236 10.38 13.7244 10.207C13.8584 9.97661 13.9981 9.776 14.138 9.75074C14.0747 9.76239 14.0103 9.76696 13.946 9.76436C13.946 9.76436 13.9888 9.7216 14.0612 9.66334C14.1336 9.60508 14.2204 9.53325 14.3445 9.53321C14.566 9.53315 14.6766 9.56602 14.8009 9.56599C14.9252 9.56211 14.997 9.53304 14.997 9.53304C14.997 9.53304 15.1272 9.62427 15.4203 9.62419C15.7135 9.62795 15.9096 9.65311 16.0631 9.66677C16.2166 9.68042 16.731 9.62384 16.8786 9.62815C16.9748 9.63183 17.0693 9.65493 17.1564 9.69604L16.6802 8.31377L14.9708 6.82047L13.9535 7.54113L12.3887 9.1066L10.8744 9.66816L10.5579 10.0236L10.5581 10.5653L10.5542 10.5653Z" fill="#CCB360"/>
  <path fill-rule="evenodd" clip-rule="evenodd" d="M13.9521 9.77202C13.9521 9.77202 13.9948 9.72938 14.0665 9.67112C14.1382 9.61286 14.2258 9.5409 14.35 9.54087C14.5713 9.54081 14.682 9.57381 14.8063 9.57377C14.9306 9.5699 15.0024 9.5407 15.0024 9.5407C15.0024 9.5407 15.1327 9.6318 15.4257 9.63172C15.719 9.63548 15.9151 9.66064 16.0686 9.67417C16.222 9.6877 16.7364 9.63137 16.884 9.63555C16.9802 9.63915 17.0747 9.66225 17.1617 9.70344L16.946 9.08014L16.6955 8.60456L15.9806 7.82216C15.9806 7.82216 15.1229 7.31756 15.1164 7.31372C15.1125 7.30988 14.8193 7.23226 14.8193 7.23226L14.0427 7.70236L13.3384 9.52591L13.3249 9.90991L13.7812 10.1253C13.8957 9.93331 14.022 9.77968 14.1404 9.76019C14.0335 9.77187 13.952 9.77189 13.952 9.77189L13.9521 9.77202Z" fill="#D5B457"/>
  <path fill-rule="evenodd" clip-rule="evenodd" d="M13.9424 9.90227C13.8745 9.90613 13.8183 9.89257 13.8026 9.84407C13.7444 9.68101 13.6978 9.65773 13.649 9.65774C13.6002 9.65775 13.5345 9.7626 13.4954 9.77221C13.4564 9.78182 13.41 9.65192 13.41 9.65192L13.3673 9.63247C13.3673 9.63247 13.1168 9.79561 12.9402 9.98791C12.7636 10.1802 12.4743 10.5066 12.3443 10.5647C12.2142 10.6229 11.7675 10.6426 11.6147 10.6756C11.4619 10.7087 11.2924 10.8195 11.2691 10.8447C11.2459 10.8699 11.3373 10.897 11.3508 10.9222C11.3644 10.9455 11.2012 10.9358 11.1876 10.9607C11.178 10.9801 11.2261 11.0907 11.2499 11.147C11.2916 11.1263 11.3373 11.115 11.3838 11.114C11.5333 11.1101 11.6421 11.2091 11.8207 11.2091C12.2518 11.209 12.642 10.8923 12.9293 10.7951C13.141 10.7232 13.3235 10.6707 13.4516 10.5542C13.5137 10.5018 13.6244 10.3852 13.7253 10.2123C13.799 10.0939 13.8709 9.98318 13.9428 9.90163L13.9424 9.90227Z" fill="#D2B257"/>
  <path fill-rule="evenodd" clip-rule="evenodd" d="M7.76254 19.5136C7.76254 19.5136 7.72411 19.3699 7.36817 18.9992C7.26715 18.8943 7.20504 18.8072 7.13706 18.7449C6.96806 18.5856 6.86897 18.543 6.74863 18.4517C6.48451 18.2557 6.19715 18.2558 5.97577 18.0151C5.7544 17.7744 5.49635 17.3144 5.31703 16.8443C5.14026 16.3745 5.09158 16.225 5.09158 16.2114C5.09157 16.1978 5.14019 16.1066 5.20227 16.1201C5.26436 16.1337 5.26439 16.254 5.28001 16.2832C5.31096 16.3308 5.34605 16.3756 5.38488 16.417C5.47617 16.522 5.60625 16.6474 5.67235 16.8345C5.65874 16.6753 5.60429 16.4986 5.60429 16.4986C5.60429 16.4986 5.94611 16.7141 6.23737 16.9392C6.53068 17.1644 6.65102 17.242 6.73669 17.3856C6.82236 17.5292 7.02419 17.9079 7.12086 18.0186C7.21753 18.1293 8.5418 18.5464 8.5418 18.5464L9.17182 19.0158L9.48471 19.7012L9.24007 20.0852L8.77021 20.1864L8.00698 19.8448L7.76254 19.5135L7.76254 19.5136Z" fill="#D2B159"/>
  <path fill-rule="evenodd" clip-rule="evenodd" d="M6.06656 17.1529C6.06656 17.1529 6.22586 17.4071 6.61427 17.6478C6.9639 17.8594 7.51729 18.0515 8.01064 18.166C8.29405 18.2339 8.57758 18.2861 8.83192 18.29C9.51736 18.2995 9.98912 18.1034 10.5737 18.0391C10.8902 18.006 11.2786 17.9806 11.6824 17.8852C12.2007 17.7607 12.5075 17.6208 12.925 17.424C13.2278 17.2842 13.5055 17.1793 13.7307 17.0452C14.0472 16.8587 14.2781 16.6509 14.5462 16.5888C14.5132 16.6801 14.4783 16.8431 14.2142 17.0122C14.354 17.0082 14.5463 16.9985 14.5463 16.9985C14.5463 16.9985 14.3599 17.1092 14.0318 17.3578C13.8299 17.5115 13.562 17.7715 13.2883 17.9444C13.1115 18.0552 12.9193 18.1365 12.7931 18.2028C12.486 18.3719 12.3621 18.4573 12.1603 18.6638C12.2321 18.6599 12.238 18.6638 12.238 18.6638C12.238 18.6638 11.9835 18.6969 11.8011 18.7939C11.7627 18.794 11.6962 18.7804 11.5797 18.8135C11.4885 18.8425 11.368 18.9087 11.2439 18.9436C11.0671 18.9961 11.009 18.9728 11.009 18.9728L11.0381 19.0311C11.0381 19.0311 10.8077 19.0272 10.7309 19.035C10.7444 19.0388 10.7406 19.0447 10.7406 19.0447C10.7271 19.047 10.7141 19.0516 10.7022 19.0583C10.6653 19.0823 10.6246 19.1 10.5819 19.1107C10.5586 19.1145 10.5391 19.1145 10.51 19.1204C10.5197 19.1437 10.5955 19.274 10.6305 19.3508C10.6014 19.3703 10.1645 19.7005 10.1645 19.7005C10.1781 19.7218 10.1892 19.7446 10.1976 19.7685C10.2111 19.8111 10.217 19.8733 10.2306 19.9023C10.2635 19.9606 10.283 19.9703 10.283 19.9703C10.283 19.9703 10.2306 19.98 10.1393 20.0033C10.0617 20.0228 9.96647 20.0557 9.83208 20.0752C9.79084 20.0806 9.74936 20.0839 9.70779 20.085C9.72726 20.1277 9.81268 20.2908 9.65542 20.4791C9.49816 20.6675 9.44965 20.6949 9.40117 20.8152C9.37675 20.7967 9.35074 20.7805 9.32346 20.7666C9.27111 20.7433 9.19916 20.7085 9.17393 20.6618C9.15925 20.724 9.13979 20.7851 9.11574 20.8443C9.06726 20.9744 8.99549 21.1027 8.98195 21.1997C8.92945 21.1415 8.8324 21.0269 8.69839 21.0503C8.56438 21.0736 8.45767 21.2562 8.43439 21.3086C8.43438 21.2756 8.41108 21.2504 8.40533 21.2892C8.40137 21.3319 8.32777 21.7784 7.91622 22.1398C7.91235 22.0485 7.9123 21.8465 7.90255 21.7806C7.86416 21.819 7.8172 21.8757 7.53755 21.9962C7.26379 22.1166 7.30722 22.2371 7.30722 22.2371C7.30722 22.2371 7.28387 22.0451 7.4314 21.8428C7.58085 21.6409 7.67209 21.5456 7.67208 21.5302C7.66967 21.5144 7.66293 21.4996 7.65262 21.4874C7.63316 21.468 7.59437 21.4447 7.59436 21.4292C7.61765 21.4196 7.84866 21.3088 7.83504 21.0795C7.82141 20.8739 7.73409 20.767 7.67186 20.6914C7.66226 20.6816 7.76323 20.6098 7.74953 20.5865C7.7398 20.573 7.61561 20.4816 7.59998 20.433C7.60364 20.4039 7.61015 20.3753 7.61941 20.3476C7.63297 20.3048 7.64269 20.2756 7.63884 20.2466C7.6291 20.1981 7.57659 20.0641 7.5611 20.0505C7.57466 20.0543 7.67169 20.0505 7.67169 20.0505C7.67169 20.0505 7.59409 19.9262 7.58037 19.868C7.56666 19.8097 7.53757 19.6563 7.52207 19.6272C7.55509 19.631 7.63663 19.6368 7.63663 19.6272C7.64059 19.598 7.5648 19.5495 7.5982 19.512C7.6215 19.5158 7.66617 19.5353 7.70881 19.5897C7.6855 19.5275 7.64668 19.4072 7.56501 19.3587C7.6034 19.3451 7.73395 19.31 7.84853 19.3779C7.96311 19.4459 8.00217 19.5409 8.00217 19.5409C8.00217 19.5409 8.07016 19.5934 8.17514 19.6711C8.29548 19.7661 8.44886 19.9014 8.69362 19.9971C8.74611 20.0262 8.88 20.0262 8.97715 20.0067C9.01945 19.9966 9.06 19.9803 9.09745 19.9582C9.11098 19.9502 9.12531 19.9437 9.1402 19.9387C9.11932 19.8968 9.0953 19.8566 9.06836 19.8183C9.10138 19.8183 9.14017 19.8222 9.14017 19.8222C9.14017 19.8222 9.16345 19.7698 9.05859 19.6687C9.08188 19.6454 9.11106 19.6302 9.11105 19.591C9.07803 19.5871 9.01977 19.5386 9.0062 19.5192C9.02552 19.5056 9.0547 19.4609 9.08772 19.4473C9.05853 19.4241 8.98669 19.3269 8.95367 19.3173C8.98521 19.3056 9.01573 19.2913 9.04492 19.2746C9.04492 19.2746 8.88184 19.2318 8.82935 19.1969C8.77686 19.1585 8.69927 19.0921 8.65267 19.0727C8.60403 19.0532 8.51865 19.0437 8.48369 19.0048C8.51659 19.0145 8.56907 19.0047 8.60798 19.0047C8.63704 19.0047 8.65074 19.0085 8.66034 19.0085C8.65649 18.995 8.65648 18.9658 8.73226 18.9562C8.7687 18.9507 8.80407 18.9395 8.83708 18.9231C8.83708 18.9231 8.76514 18.9193 8.68346 18.8416C8.60177 18.764 8.53392 18.7019 8.48732 18.6922C8.43881 18.6825 8.34756 18.7252 8.29123 18.7213C8.21354 18.7117 8.1805 18.6728 8.1805 18.6728C8.1805 18.6728 7.92233 18.6962 7.34944 18.3469C6.85412 18.044 6.6385 17.7762 6.6385 17.7762C6.59215 17.7594 6.54735 17.7386 6.5046 17.714C6.3182 17.617 6.05984 17.4151 6.06758 17.1509L6.06656 17.1529Z" fill="#C2A44D"/>
  <path fill-rule="evenodd" clip-rule="evenodd" d="M13.207 5.49658C13.2519 5.51116 13.2918 5.53807 13.3222 5.57424C13.4135 5.67905 13.4718 5.87705 13.2641 6.08882C13.3456 6.11785 13.3793 6.12719 13.4505 6.11782C13.3787 6.20335 13.2157 6.38592 13.206 6.54515C13.1963 6.6752 13.2778 6.7141 13.2778 6.7141C13.2778 6.7141 13.1536 6.85774 13.1479 7.09813C13.2066 7.03192 13.2708 6.97084 13.3398 6.91555C13.4836 6.80095 13.6815 6.67085 13.8155 6.58928C13.8137 6.62345 13.8183 6.65766 13.8291 6.69014C13.8291 6.69014 14.0794 6.48425 14.2899 6.57558C14.385 6.61831 14.3423 6.75221 14.3423 6.75221C14.3423 6.75221 14.4725 6.70366 14.5637 6.7949C14.655 6.88614 14.7841 7.1215 14.8503 7.21274C14.8794 7.25549 14.9552 7.337 15.0328 7.46319C15.1388 7.63986 15.2273 7.82645 15.2971 8.0203C15.3009 7.91931 15.3261 7.76212 15.6136 7.86099C15.901 7.9619 16.2272 8.17353 16.5011 8.59035C16.775 9.00717 16.843 9.47781 16.9809 9.65697C17.1207 9.82974 17.2645 10.1171 17.2743 10.2375C17.2841 10.3579 17.2317 10.7462 17.5193 11.7966C17.6008 11.4704 17.7249 10.7461 17.7249 10.7461L17.7927 10.1072L17.8698 8.13046L15.8052 6.4162L14.1914 5.24569L13.1409 5.34696L13.2069 5.49645L13.207 5.49658Z" fill="#CAA13E"/>
  <path fill-rule="evenodd" clip-rule="evenodd" d="M17.0429 8.43721C17.0429 8.43721 17.0136 8.24522 16.5282 7.91895C16.0426 7.59678 15.664 7.59688 15.3145 7.32318C15.0464 7.1077 14.7667 6.61254 14.5846 6.44952C14.4078 6.28842 14.3786 5.82238 14.3786 5.82238L14.9746 5.32302L15.8608 4.04137L16.61 3.21595L16.9693 3.71506L17.4687 4.30129L17.7466 5.47792L17.8481 7.20026L17.042 8.43734L17.0429 8.43721Z" fill="#B59544"/>
  <path fill-rule="evenodd" clip-rule="evenodd" d="M17.6434 10.5016C17.6581 10.2404 17.6257 9.97864 17.548 9.72884C17.4199 9.3308 17.14 8.62406 17.01 8.35939C16.9575 8.06616 16.9964 8.04285 17.0527 8.00981C17.109 7.97677 17.3207 7.85614 17.4365 7.43307C17.5524 7.01 17.9122 6.99607 17.9122 6.99607L18.1335 6.83294L18.4697 7.67356L18.763 8.43277L18.8544 9.01336L18.9225 9.50844L18.7636 10.5551L17.9775 11.266L17.6433 10.5016L17.6434 10.5016Z" fill="#C89D3A"/>
  <path fill-rule="evenodd" clip-rule="evenodd" d="M6.67387 22.1703L6.67386 22.1488C6.6902 22.1386 6.70462 22.1256 6.71648 22.1104C6.73004 22.091 6.73989 22.0677 6.74949 22.0619C6.76894 22.0522 6.8602 22.0235 6.90871 22.0327C6.95723 22.0419 7.0855 22.0947 7.15346 22.0909C7.29324 22.087 7.45628 21.98 7.7146 22.0286C8.10297 22.1003 8.19431 22.3644 8.41963 22.5138C8.57325 22.6187 8.73222 22.572 8.75551 22.572L8.80786 22.5719C8.81759 22.5719 8.88938 22.4904 8.92829 22.4943C9.00599 22.4982 9.01369 22.5623 9.0622 22.5661C9.17676 22.5797 9.39818 22.5078 9.50891 22.5369C9.54174 22.5472 9.57161 22.5653 9.59595 22.5896C9.6203 22.6139 9.6384 22.6437 9.64872 22.6765C9.67204 22.7484 9.65261 22.8396 9.5963 22.8921C9.47601 23.0027 9.36148 23.1077 9.33821 23.1994C9.36785 23.222 9.39631 23.2461 9.42348 23.2716C8.46267 23.027 7.5382 22.6572 6.67387 22.1715L6.67387 22.1703Z" fill="#CEB052"/>
  <path fill-rule="evenodd" clip-rule="evenodd" d="M17.0125 18.2878C17.0125 18.2878 17.3152 17.8838 17.4201 17.6838C17.5249 17.4775 17.0874 14.8664 17.0874 14.8664L17.9643 11.9905L17.9406 11.0546C17.9406 11.0546 17.9831 10.1905 18.084 9.81567C18.2045 10.0312 18.5794 10.2913 18.6609 10.4291C18.6993 10.1649 18.8296 9.60773 18.8101 9.01355C18.8819 9.12413 19.055 10.2368 19.055 10.2368L19.228 10.9862L19.4535 11.7823L19.7042 12.623L19.8539 13.2036L19.9393 13.3434L20.0113 13.588L20.0793 13.8521L20.2756 14.4715L20.3909 14.9801L20.4824 15.9025C20.5023 15.9731 20.5166 16.0451 20.5253 16.118C20.5291 16.219 20.5117 16.2772 20.5117 16.2948C20.5117 16.3123 20.5448 16.5161 20.5313 16.6695C20.5119 16.8231 20.5119 16.9433 20.3915 17.0536C20.2711 17.1638 20.1956 17.8225 20.1956 17.8225L19.98 17.679C19.98 17.679 20.0227 17.4827 19.9217 17.3042C19.8206 17.1257 19.6245 17.0887 19.5138 17.1179C19.4032 17.1413 19.1819 17.1761 19.11 17.2384C19.0421 17.3005 18.8752 17.4928 18.7217 17.5802C18.5298 17.6955 18.2169 17.7047 18.05 17.7435C17.8811 17.7819 17.6948 17.8972 17.4986 18.031C17.3447 18.1306 17.1823 18.2164 17.0133 18.2871L17.0125 18.2878Z" fill="#CCA847"/>
  <path fill-rule="evenodd" clip-rule="evenodd" d="M17.0135 22.5305C17.0135 22.5305 17.0263 22.5388 17.051 22.5523C18.4304 21.9056 19.6662 20.9892 20.6855 19.857C20.6743 19.464 20.6597 19.0612 20.6438 18.912C20.6108 18.5954 20.634 18.2731 20.6243 18.0867C20.6145 17.9004 20.5094 17.1411 20.4609 16.945C20.4083 16.7489 20.3072 16.6518 20.2918 16.6518C20.2783 16.6558 20.1967 17.0209 20.1967 17.1127C20.1968 17.2044 20.1774 17.4254 20.1774 17.4817C20.1638 17.4777 20.158 17.4433 20.158 17.4292C20.1386 17.4777 20.1153 17.5632 20.1056 17.573C20.0959 17.5827 20.1191 17.4914 20.1056 17.472C20.092 17.4525 20.0672 17.4623 20.0725 17.4137C20.0748 17.385 20.0793 17.3564 20.0861 17.3284C20.0861 17.3284 20.0278 17.4138 19.9853 17.6312C19.9426 17.8468 19.9426 17.8527 19.9271 17.872C19.9135 17.8955 19.8359 17.973 19.8319 18.0022C19.8281 18.0546 19.9039 18.107 19.9096 18.1361C19.9135 18.1847 19.8417 18.4099 19.8185 18.5201C19.7952 18.6303 19.805 18.8463 19.7802 18.957C19.7608 19.058 19.7418 19.1162 19.6754 19.1589C19.7239 19.1686 19.7705 19.1821 19.7705 19.1821C19.7705 19.1821 19.8386 19.4695 19.6658 19.7143C19.6038 19.7997 19.5883 19.8386 19.5223 19.9163C19.3921 20.0599 19.2912 20.2236 19.2815 20.3299C19.2748 20.2985 19.2702 20.2667 19.2679 20.2347C19.2679 20.2347 19.0661 20.4698 18.9806 20.6038C18.8701 20.7766 18.7166 20.7669 18.6735 20.8097C18.6304 20.8525 18.621 20.93 18.6351 20.9922C18.5967 21.0019 18.5246 21.0156 18.476 21.1651C18.4527 21.2427 18.3945 21.3187 18.3032 21.371C18.212 21.4232 18.1012 21.439 18.0449 21.4526C18.0934 21.4661 18.1129 21.4661 18.1362 21.4816C18.1072 21.5301 17.9732 21.6059 17.8237 21.7031C17.6742 21.7944 17.6023 21.9283 17.5655 22.0158C17.5271 22.0973 17.4704 22.1498 17.3791 22.1596C17.4175 22.1828 17.4744 22.2371 17.5034 22.2546C17.4607 22.2644 17.3883 22.2644 17.2589 22.3751C17.123 22.4878 17.0764 22.5209 17.0142 22.5306L17.0135 22.5305Z" fill="#C39D3C"/>
  <path fill-rule="evenodd" clip-rule="evenodd" d="M14.312 23.4311C14.3864 23.3789 14.4669 23.3362 14.5517 23.3039C14.8546 23.1835 15.1749 23.1601 15.3011 23.1213C15.4216 23.0828 15.5167 23.0298 15.6662 23.0007C15.6622 23.0348 15.6589 23.0668 15.6553 23.097C15.2146 23.2357 14.7658 23.3472 14.3114 23.4311L14.312 23.4311Z" fill="#D2BA6B"/>
  <path fill-rule="evenodd" clip-rule="evenodd" d="M19.8959 15.4638C19.8959 15.4638 19.8339 15.7996 19.7232 16.0114C19.6126 16.2231 19.493 16.5163 19.493 16.5163C19.4937 16.4502 19.5015 16.3844 19.5162 16.3201C19.3765 16.4016 19.0367 16.5979 18.9403 16.6853C18.8491 16.7668 18.6956 16.9106 18.6569 16.9786C18.7481 16.7107 18.8431 16.4699 18.8587 16.3591C18.7189 16.4602 18.0665 16.9982 17.7269 17.3536L16.6688 18.2102C16.5467 18.2761 16.421 18.3351 16.2922 18.3867C16.1098 18.4643 15.8943 18.5304 15.7351 18.5927C15.7778 18.4781 15.8456 18.377 15.9408 18.2799C16.0418 18.1848 16.3445 17.8565 16.3911 17.7038C16.4338 17.5446 16.4435 17.4495 16.3871 17.3155C16.3347 17.329 16.2143 17.335 16.1328 17.3583C16.0513 17.3816 15.9639 17.4689 15.9639 17.4689C15.9639 17.4689 16.0259 17.1136 16.1598 16.7777C16.0588 16.7815 15.886 16.8106 15.886 16.8106C15.886 16.8106 16.1267 16.4067 16.5386 16.1251C16.4124 16.152 16.289 16.1904 16.1698 16.2397C15.929 16.3407 15.665 16.4903 15.4689 16.5719C15.5795 16.4183 16.3559 15.3096 16.8178 14.2764C17.2783 13.2452 17.4504 12.9811 17.5513 12.4277C17.6035 12.1539 17.5895 11.7493 17.6033 11.3869C17.6168 11.0276 17.6614 10.7053 17.6323 10.4898C17.7526 10.6392 18.2033 11.0605 18.2191 12.0023C18.2329 12.944 17.7887 14.2161 17.3169 14.9015C17.4321 14.9345 17.7306 14.9733 18.0372 14.4405C18.3437 13.9077 18.34 13.759 18.4506 13.5375C18.4642 13.6482 18.4603 13.687 18.4603 13.687C18.4603 13.687 18.9068 13.1452 19.1182 12.4635C19.1611 12.7568 19.2874 13.015 19.0894 13.5529C18.9128 14.0384 18.6818 14.1569 18.6818 14.1569C18.6818 14.1569 18.7964 14.1375 18.9652 14.0364C18.9944 14.1082 18.9887 14.19 19.0372 14.2189C19.0857 14.2478 19.1518 14.2966 19.1615 14.3432C19.2138 14.2655 19.2953 14.1664 19.3207 14.0926C19.3013 14.2463 19.2879 14.9179 19.3594 15.2596C19.509 15.246 19.6624 15.2362 19.7671 14.9663C19.6954 15.2305 19.6954 15.3896 19.744 15.6148C19.8236 15.5605 19.8954 15.4634 19.8954 15.4634L19.8959 15.4638Z" fill="#C0993A"/>
  <path fill-rule="evenodd" clip-rule="evenodd" d="M14.8476 4.76218C14.8476 4.76218 14.6981 4.8243 14.4438 4.82437C14.2225 4.82443 14.2845 4.73904 13.9389 4.73913C13.407 4.73927 11.5487 5.04697 11.2225 5.04271C11.0107 5.03892 11.937 5.13378 11.937 5.13378L14.3041 5.16617L14.7797 5.12764L14.9564 4.76791L14.8476 4.76218Z" fill="#A88F33"/>
  <path fill-rule="evenodd" clip-rule="evenodd" d="M8.71121 9.39094C8.71121 9.39094 8.4083 9.62206 8.28022 9.79886C8.15214 9.97566 8.0842 10.092 7.93857 10.2358C7.97277 10.2371 8.00693 10.2325 8.03956 10.2222C8.03956 10.2222 8.03957 10.2606 8.01628 10.2707C8.03641 10.2685 8.05679 10.2708 8.07593 10.2774C8.09506 10.284 8.11247 10.2949 8.12688 10.3091C8.08414 10.3324 7.96769 10.4491 8.05899 10.5869C8.12698 10.6917 8.27073 10.7013 8.27073 10.7013C8.27073 10.7013 8.23773 10.7965 8.37559 10.7867C8.67267 10.7731 9.00467 10.6428 9.15802 10.6758C9.31163 10.7142 9.39893 10.7282 9.50765 10.9166C9.6229 11.1029 9.72326 11.1321 9.72326 11.1321C9.72326 11.1321 9.79118 10.9592 9.77563 10.701C9.83132 10.5618 9.86217 10.4139 9.86677 10.2641L9.76558 9.52044L9.32473 8.96325L8.75393 9.27995L8.71121 9.39055L8.71121 9.39094Z" fill="#E3C571"/>
  <path fill-rule="evenodd" clip-rule="evenodd" d="M9.25274 9.28014C9.25274 9.28014 9.29552 9.38112 9.47421 9.39067C9.45477 9.43343 9.45477 9.43932 9.46067 9.47221C9.46452 9.50524 9.47029 9.55375 9.47029 9.55375C9.48996 9.54422 9.50774 9.53121 9.52276 9.51533C9.5325 9.55808 9.51306 9.62593 9.5228 9.67457C9.52881 9.70415 9.53858 9.73284 9.55188 9.75993C9.55471 9.75329 9.55796 9.74684 9.5616 9.7406C9.56544 9.73087 9.60003 9.84543 9.69567 9.93257C9.69558 9.91916 9.69888 9.90595 9.70526 9.89417C9.70673 9.91851 9.71479 9.942 9.72857 9.96213C9.72142 9.95872 9.71488 9.95413 9.70924 9.94856C9.70924 9.94856 9.71893 10.2558 9.77145 10.4146C9.78022 10.4043 9.78801 10.3933 9.79474 10.3816C9.79473 10.372 9.79092 10.4671 9.78121 10.5352C9.76766 10.6031 9.77741 10.6982 9.77741 10.6982C9.81241 10.6707 9.85088 10.6478 9.89183 10.6302C9.95006 10.6068 10.0454 10.535 10.1035 10.3757C10.1372 10.2855 10.1631 10.1927 10.1811 10.0981C10.1999 10.1342 10.2128 10.1731 10.2195 10.2133C10.2235 10.2618 10.3148 10.2365 10.3148 10.2365L10.3342 10.0248L10.4492 9.54517L10.554 9.24805L11.0586 8.46161L11.9705 7.7589L12.7668 7.94122L13.4383 7.02839L12.2808 6.33354L11.1857 6.44839L10.1921 7.8253L9.39643 9.07415L9.25274 9.28001L9.25274 9.28014Z" fill="#D8B65B"/>
  <path fill-rule="evenodd" clip-rule="evenodd" d="M14.9882 7.28637C14.9882 7.28637 14.9203 7.29996 14.7242 7.40165C14.5281 7.50333 14.3922 7.53562 14.3165 7.68515C14.2407 7.83467 14.235 7.9532 14.235 7.9532C14.235 7.9532 14.369 7.89492 14.4467 7.87545C14.5282 7.8561 14.6195 7.86183 14.6098 7.89486C14.6004 7.91751 14.5875 7.93848 14.5714 7.95695C14.5714 7.95695 14.725 7.95307 14.7209 8.02885C14.7168 8.10462 14.6919 8.18809 14.6629 8.22496C14.6337 8.26337 14.5134 8.32023 14.4998 8.36491C14.4668 8.45618 14.5134 8.46001 14.4959 8.53374C14.4823 8.60568 14.4184 8.74547 14.2087 8.99014C13.9932 9.23493 13.9016 9.40775 13.9016 9.40775C13.9016 9.40775 13.7967 9.21169 13.7422 9.04274C13.7038 9.06208 13.4977 9.17669 13.4977 9.17669L13.0195 7.51282L13.0291 7.4021C13.0291 7.4021 13.0718 7.34974 13.0815 7.25258C13.0097 7.22931 13 7.20985 12.9047 7.11874C12.8095 7.02763 12.7319 6.9168 12.5728 6.84107C12.5494 6.79832 12.5202 6.74022 12.4038 6.71683C12.2873 6.69344 12.2174 6.67425 12.2174 6.67425C12.2174 6.67425 12.2795 6.65081 12.3086 6.60229C12.2367 6.61204 12.1786 6.63535 12.0213 6.63155C11.862 6.62763 11.8445 6.62187 11.7572 6.63547C11.6699 6.64906 11.5652 6.688 11.5262 6.55399C11.4834 6.52098 11.3921 6.55019 11.3145 6.66464C11.2368 6.77909 11.2097 6.87049 11.0602 6.9152C11.0497 6.98111 11.0266 7.04438 10.9923 7.10159C10.9495 7.17354 10.8816 7.24536 10.7904 7.35214C10.6467 7.52114 10.67 7.79877 10.441 8.01054C10.21 8.22218 10.4792 7.42403 10.4792 7.42403L10.8479 6.54073L11.8981 5.51325L13.5292 5.40222L13.6886 6.24698L14.4849 6.52056L14.988 7.2874L14.9882 7.28637Z" fill="#D3AE4D"/>
  <path fill-rule="evenodd" clip-rule="evenodd" d="M15.2466 7.47267L14.5609 6.48457L14.0812 6.11567C14.0812 6.11567 13.7392 5.48677 13.7159 5.46732C13.6965 5.45376 13.3742 5.4189 13.1683 5.40539L13.2068 5.50048C13.2517 5.51506 13.2916 5.54198 13.322 5.57815C13.4133 5.68296 13.4716 5.88096 13.2639 6.09272C13.3454 6.12176 13.3791 6.13109 13.4503 6.12173C13.3785 6.20725 13.2154 6.38983 13.2058 6.54906C13.1961 6.67911 13.2776 6.71787 13.2776 6.71787C13.2776 6.71787 13.1534 6.86165 13.1477 7.10191C13.2063 7.0357 13.2706 6.97462 13.3396 6.91933C13.4833 6.80409 13.6813 6.6745 13.8153 6.59293C13.8135 6.62714 13.8181 6.6614 13.8289 6.69392C13.8289 6.69392 14.0792 6.48803 14.2897 6.57923C14.3848 6.62196 14.3421 6.75599 14.3421 6.75599C14.3421 6.75599 14.4722 6.70744 14.5635 6.79868C14.6548 6.88992 14.7849 7.12476 14.851 7.21614C14.8801 7.25888 14.9559 7.3404 15.0335 7.46646C15.1395 7.64316 15.228 7.82979 15.2978 8.0237C15.3016 7.946 15.3172 7.83733 15.4514 7.83729L15.2474 7.47229L15.2466 7.47267Z" fill="#CAA13E"/>
  <path fill-rule="evenodd" clip-rule="evenodd" d="M4.97159 10.2833C4.97159 10.2833 4.92304 10.1628 4.97149 9.92793C5.01994 9.69303 5.09569 9.58229 5.12081 9.23669C5.14594 8.89108 5.3711 8.45991 5.3711 8.45991L5.99426 8.17636L6.43512 8.29656L6.56533 8.88686L6.0081 9.19421C6.0081 9.19421 5.97908 9.32426 5.82179 9.42914C5.66451 9.53401 5.44706 9.61561 5.39473 9.7225C5.36346 9.78796 5.34063 9.85713 5.32682 9.92834C5.32682 9.92834 5.16758 9.89536 5.07251 10.0002C4.97154 10.1071 4.97541 10.2022 4.97159 10.2838L4.97159 10.2833Z" fill="#F4EFC8"/>
  <path fill-rule="evenodd" clip-rule="evenodd" d="M6.22974 10.1256C6.22974 10.1256 6.17727 10.1586 6.13851 10.2408C6.10009 10.1788 6.00822 9.80976 6.00429 9.47773C6.00036 9.1457 5.9805 9.0634 6.05727 8.94895C6.13404 8.8345 6.43519 8.71384 6.39238 8.50777C6.34958 8.31169 6.17087 8.2302 5.95149 8.28658C5.7979 8.32502 5.68369 8.65171 5.5245 8.81482C5.40408 8.93914 5.26046 8.91972 5.2217 8.9877C5.16924 9.07898 5.21778 9.17023 5.2023 9.22848C5.19834 9.24793 5.14986 9.35278 5.06247 9.47901C4.8859 9.73339 4.58698 10.0928 4.54816 10.4151C4.56168 10.2326 4.55208 10.2287 4.60053 10.0267L4.57134 9.97821L4.76317 9.34904L4.88732 8.83061L5.16484 7.96244L5.65382 7.07501L6.12945 6.54279L6.62457 6.57568L6.68301 7.31934L6.9669 8.71549L7.5632 9.44928L6.60798 10.0925L6.22936 10.1256L6.22974 10.1256Z" fill="#EBCC73"/>
  <path fill-rule="evenodd" clip-rule="evenodd" d="M6.52684 10.3893C6.52684 10.3893 6.44531 10.4088 6.41613 10.3933C6.38694 10.3778 6.358 10.3603 6.3676 10.3408C6.37719 10.3214 6.42967 10.2885 6.42966 10.2728C6.43073 10.2587 6.42627 10.2448 6.41721 10.2339C6.40815 10.223 6.39521 10.2161 6.38113 10.2146C6.33646 10.2089 6.3229 10.2379 6.3229 10.2379C6.3229 10.2379 6.28014 10.205 6.24532 10.1995C6.26592 10.197 6.28665 10.1957 6.3074 10.1956C6.25373 10.1713 6.19681 10.1549 6.13843 10.1471C6.18693 10.118 6.28214 10.0325 6.34422 10.0325C6.4063 10.0325 6.44521 10.0228 6.43547 9.98983C6.42574 9.95681 6.37721 9.90831 6.32485 9.88887C6.34418 9.86556 6.35786 9.83062 6.31124 9.73527C6.26258 9.64018 6.28202 9.57604 6.29763 9.55287C6.31119 9.52368 6.35969 9.47132 6.38297 9.43829C6.40626 9.40526 6.4257 9.36058 6.46448 9.33728C6.48393 9.3237 6.54601 9.29885 6.60821 9.27516C6.67617 9.25184 6.73248 9.22264 6.77127 9.25182C6.81403 9.28086 6.79459 9.31978 6.79459 9.31978C6.79459 9.31978 6.92859 9.2711 7.04893 9.33328C7.16939 9.39136 7.46265 9.42827 7.46265 9.42827L7.56779 9.63996L6.87279 10.2362L6.58547 10.3801L6.52723 10.3897L6.52684 10.3893Z" fill="#E5C66B"/>
  <path fill-rule="evenodd" clip-rule="evenodd" d="M7.49159 9.41456C7.49159 9.41456 7.27608 9.55836 7.22758 9.61073C7.25664 9.61469 7.30516 9.63413 7.28571 9.66319C7.26242 9.69225 7.12267 9.79328 7.045 9.88854C6.96349 9.98366 6.88583 10.1041 6.85871 10.1624C6.82967 10.2147 6.60827 10.3683 6.53262 10.3876C6.69186 10.3876 7.01219 10.1914 7.13251 10.1914C7.12868 10.2496 7.16556 10.3156 7.23353 10.3214C7.3015 10.3271 7.49761 10.3641 7.76163 10.2009C8.02565 10.0416 7.93832 9.92311 8.04889 9.84552C8.26057 9.70556 8.34591 9.58124 8.46237 9.50364C8.57883 9.42605 8.63911 9.40837 8.63911 9.40837C8.63911 9.40837 8.64294 9.35012 8.6775 9.356C8.68696 9.35709 8.69594 9.36073 8.70348 9.36655C8.71102 9.37237 8.71682 9.38014 8.72026 9.38902C8.72026 9.38902 8.9222 9.24522 9.18101 9.20636C9.17497 9.20367 9.17014 9.19884 9.16744 9.1928C9.16744 9.1928 9.18676 9.18307 9.19073 9.17334C9.19073 9.17334 9.20429 9.15388 9.21402 9.1636C9.22375 9.17333 9.23734 9.24513 9.25681 9.27431C9.29955 9.25484 9.38104 9.07229 9.38104 9.07229L9.57711 8.51109L9.57697 7.99845L9.42338 8.02768L8.27151 8.5172L7.57257 9.24174L7.49108 9.41456L7.49159 9.41456Z" fill="#E6BD62"/>
  <path fill-rule="evenodd" clip-rule="evenodd" d="M10.8074 6.89917C10.8697 6.88403 10.9295 6.85978 10.9847 6.82719C10.9614 6.8894 10.9614 6.95737 10.8605 7.10498C10.7595 7.25259 10.7557 7.27397 10.6742 7.42733C10.5927 7.58659 10.583 7.81571 10.5054 7.9166C10.5402 7.89966 10.5775 7.88854 10.616 7.88367C10.616 7.88367 10.5384 7.95166 10.5054 8.02347C10.4724 8.09529 10.4142 8.24481 10.2706 8.33624C10.127 8.42767 9.94437 8.48583 9.74833 8.70144C9.55216 8.91307 9.35038 9.18116 9.24929 9.27757C9.30174 9.18629 9.3735 9.00375 9.39292 8.88342C9.41235 8.7631 9.38889 8.61923 9.42187 8.46012C9.45485 8.30101 9.45482 8.18632 9.61372 7.90851C9.77262 7.63071 10.0445 6.66565 10.0445 6.66565L10.6308 6.47912L10.8077 6.89853L10.8074 6.89917Z" fill="#B6933F"/>
  <path fill-rule="evenodd" clip-rule="evenodd" d="M10.3841 6.54399C10.3841 6.54399 10.2075 6.79837 10.1591 7.02366C10.1106 7.24896 10.1551 7.22949 10.1261 7.34022C10.1088 7.40773 10.1088 7.47854 10.1262 7.54604C10.1873 7.44747 10.2711 7.36487 10.3705 7.30508C10.5375 7.20417 10.6734 7.1322 10.7544 7.0468C10.8359 6.95551 10.9038 6.80599 11.0804 6.69138C11.0086 6.68167 10.9076 6.64868 10.8884 6.65304C10.9603 6.57148 11.1757 6.44713 11.3932 6.29757C11.6087 6.14391 11.5951 6.08197 11.9446 5.92853C11.8301 5.94801 11.7757 5.91884 11.6804 5.9286C11.7188 5.84705 11.8532 5.8081 11.9876 5.67418C12.1219 5.54026 11.9021 5.34217 11.9021 5.34217L10.8783 5.96184L10.3833 6.5445L10.3841 6.54399Z" fill="#C49937"/>
  <path fill-rule="evenodd" clip-rule="evenodd" d="M7.60529 6.08247L7.62853 5.89609L7.92166 5.42612L8.22825 4.60083L8.22795 3.47263L8.20448 2.82022L8.25287 2.39295L8.2897 2.25713L8.3286 2.20464L8.579 2.33462L8.92486 2.80442L8.95812 3.71129L8.62251 5.14242L7.66356 6.18933L7.60529 6.08247Z" fill="#DFC068"/>
  <path fill-rule="evenodd" clip-rule="evenodd" d="M8.36741 2.15222C8.36741 2.15222 8.21381 2.15623 8.18122 2.79509C8.14862 3.43394 8.13284 3.76982 8.10963 4.08637C8.08642 4.40292 8.0322 4.59506 8.00498 4.78157C7.97777 4.96807 7.96235 5.22228 7.8751 5.3777C7.83671 5.44951 7.75473 5.67482 7.56252 5.84383C7.34701 6.03025 7.025 6.16052 6.97624 6.17026C6.89074 6.18961 6.45772 6.23248 6.28111 6.32968C6.21904 6.36272 6.11217 6.40153 5.9938 6.51228C5.75885 6.72393 5.44637 7.10264 5.22122 7.55902C4.8758 8.24071 4.53072 10.165 4.53072 10.165L4.60838 10.035C4.60838 10.035 4.61806 9.86215 4.79078 9.55913C4.95966 9.25624 4.91105 8.91641 5.14578 8.33574C5.23698 8.1144 5.35146 7.82701 5.49117 7.58224C5.71251 7.1841 5.98032 6.84227 6.25022 6.65583C6.69084 6.35286 7.17633 6.28668 7.17633 6.28668L7.69861 5.94094C7.69861 5.94094 7.78982 5.76428 7.91022 5.56226C8.07897 5.27883 8.29406 4.96222 8.34091 4.50205C8.41266 3.82043 8.23961 3.37389 8.24923 2.97004C8.25885 2.5662 8.26261 2.26911 8.34426 2.19715C8.4259 2.1252 8.36754 2.15248 8.36754 2.15248L8.36741 2.15222Z" fill="#A88F33"/>
  <path fill-rule="evenodd" clip-rule="evenodd" d="M8.36827 5.20078C8.36827 5.20078 8.59851 4.63368 8.70385 4.13074C8.72328 4.02974 8.76204 3.92887 8.77174 3.84733C8.82013 3.37154 8.83364 3.17544 8.77149 2.91524C8.72293 2.72325 8.53652 2.55024 8.43933 2.41612C8.34419 2.27625 8.2995 2.22416 8.31895 2.19472C8.3384 2.16527 8.41403 2.11712 8.48776 2.12286C8.56613 2.12512 8.64323 2.1433 8.71436 2.17629C8.78548 2.20928 8.84916 2.25639 8.90151 2.31475C9.05106 2.48751 9.16962 3.07398 9.16962 3.07398L9.29437 3.84783L9.61117 4.82247L8.36852 5.20155L8.36827 5.20078Z" fill="#C99E3D"/>
  <path fill-rule="evenodd" clip-rule="evenodd" d="M10.533 4.60996C10.533 4.60996 10.4902 4.6293 10.4127 4.61C10.416 4.64169 10.4105 4.67369 10.3968 4.70247C10.3831 4.73124 10.3617 4.75568 10.335 4.77309C10.2535 4.74009 9.49022 4.80634 9.49022 4.80634C9.49022 4.80634 9.13488 4.74423 9.02403 4.27437C8.94638 3.96169 9.08207 3.53067 9.03732 3.24716C8.96924 2.82965 8.87412 2.74801 8.86435 2.61809C8.85459 2.48817 8.84485 2.45502 8.84483 2.37349C8.80208 2.36377 8.77686 2.35021 8.73423 2.35022C8.7245 2.31182 8.74381 2.27828 8.70117 2.21033C8.72447 2.22005 8.88371 2.23946 9.07012 2.41605C9.22376 2.55975 9.22378 2.61211 9.24695 2.64128C9.27602 2.67033 9.51108 2.87161 9.61212 3.07229C9.71317 3.27297 9.90944 3.91291 9.95414 4.01773C9.96772 4.06048 9.99691 4.10323 10.0694 4.20023C10.1821 4.34011 10.3471 4.57136 10.5335 4.60971L10.533 4.60996Z" fill="#B58634"/>
  <path fill-rule="evenodd" clip-rule="evenodd" d="M9.27441 2.651C9.39209 2.84099 9.49782 3.03812 9.59099 3.24125C9.70562 3.4994 9.77364 3.71109 9.91743 3.88385C9.83968 3.65872 9.7017 3.21601 9.62012 3.05872C9.52881 2.89234 9.3424 2.71319 9.27441 2.65113L9.27441 2.651Z" fill="#A88F33"/>
  <path fill-rule="evenodd" clip-rule="evenodd" d="M7.95486 5.84371C7.95486 5.84371 7.75877 5.89227 7.39377 6.08463C7.27334 6.14674 7.15892 6.19912 7.04821 6.24779C6.76063 6.37792 6.45218 6.49819 6.20747 6.56456C6.22693 6.58785 6.23653 6.59745 6.23653 6.59745C6.23653 6.59745 6.23656 6.69268 6.28905 6.74694C6.26 6.77613 5.87159 7.0403 5.98652 7.92373C6.06408 7.89465 6.15533 7.85571 6.1689 7.85571C6.19233 7.85967 6.1981 7.92367 6.22716 7.92366C6.25622 7.92365 6.35144 7.88523 6.45239 7.75464C6.44857 7.80712 6.39047 8.33527 6.70314 8.69051C6.76136 8.62253 6.90889 8.39721 6.90889 8.39721L6.91271 8.3254C6.91271 8.3254 6.92621 8.0749 7.00781 7.84576C7.08941 7.61661 7.24847 7.44761 7.24847 7.44761L8.079 6.26096L7.9546 5.84358L7.95486 5.84371Z" fill="#E6C367"/>
  <path fill-rule="evenodd" clip-rule="evenodd" d="M7.17867 7.58592C7.14063 7.61281 7.09873 7.63375 7.05439 7.64803C7.04081 7.59952 7.02131 7.43249 7.13583 7.26939C7.26979 7.07313 7.56284 6.81871 7.64433 6.61645C7.69677 6.48626 7.67339 6.16012 8.13932 5.74246C8.60526 5.3248 8.78762 5.18113 8.78762 5.18113L9.54093 4.80231L10.4672 5.16712L10.0076 6.97076L9.65053 7.81565L8.22966 7.54813L7.17854 7.58592L7.17867 7.58592Z" fill="#DCBA5A"/>
  <path fill-rule="evenodd" clip-rule="evenodd" d="M7.72079 7.09602L7.8975 6.87466L7.89746 6.71735C7.89746 6.71735 8.09354 6.66482 8.30507 6.44921C8.5166 6.2336 8.80973 5.81995 9.06804 5.8451C9.32636 5.87422 9.35171 6.40618 9.36148 6.55581C9.37125 6.70544 9.40437 7.04501 9.45677 7.22765C9.51506 7.41016 8.82788 8.10155 8.82788 8.10155L8.36116 8.457L7.72079 7.09602Z" fill="#E9CE77"/>
  <path fill-rule="evenodd" clip-rule="evenodd" d="M8.26834 8.93863C8.26834 8.93863 8.41202 8.71331 8.30667 8.66483C8.36871 8.52503 8.48323 8.37742 8.48323 8.37742C8.48323 8.37742 8.56471 8.17554 8.82871 7.92689C9.0927 7.67825 9.25586 7.51308 9.29857 7.34616C9.32489 7.23737 9.3392 7.12602 9.34123 7.01412C9.36978 7.03743 9.40033 7.0582 9.43251 7.07617C9.47527 7.09562 9.67717 7.26247 9.6482 7.59848C9.61924 7.93449 9.49473 8.0743 9.49473 8.0743C9.49473 8.0743 9.37444 8.19465 9.28908 8.25688C9.19771 8.31899 9.16483 8.3908 9.01136 8.39673C9.02713 8.38419 9.04486 8.37432 9.06383 8.36753C9.06383 8.36753 8.9046 8.34825 8.81911 8.42584C8.73363 8.50343 8.55193 8.74246 8.46069 8.81442C8.36944 8.87268 8.26872 8.93876 8.26872 8.93876L8.26834 8.93863Z" fill="#CDAE50"/>
  <path fill-rule="evenodd" clip-rule="evenodd" d="M14.7235 5.16006C14.4941 5.07651 14.253 5.02942 14.009 5.02048C13.6011 5.00702 13.0051 5.03047 12.4206 5.03447C11.7915 5.03848 11.2205 4.81924 10.4283 4.78067C10.2983 4.70301 9.96743 4.36326 8.93518 5.08392C8.99726 5.08006 9.68471 4.92449 9.92351 5.22356C10.1644 5.52058 10.0965 6.02543 10.0637 6.14576C10.0015 6.41381 9.79964 6.80414 9.71831 7.07795C9.63697 7.35176 9.65621 7.49563 9.59802 7.68765C9.53983 7.87966 9.41173 7.97506 9.48744 8.19635C9.58841 8.13424 9.64102 8.13423 9.80962 7.75556C9.97823 7.37689 9.94347 7.10694 10.2231 6.78649C10.4968 6.46411 10.9525 6.02315 11.1257 5.91239C11.299 5.80162 12.675 5.08676 14.116 5.76797C14.4635 5.73101 14.7236 5.15993 14.7236 5.15993L14.7235 5.16006Z" fill="#D2A83E"/>
  <path fill-rule="evenodd" clip-rule="evenodd" d="M9.51567 4.89729C9.51424 4.8827 9.51102 4.86834 9.50606 4.85454C9.49258 4.82615 9.47488 4.79996 9.45356 4.77686C9.45356 4.77686 9.11178 4.71487 8.93899 4.73424C8.63602 4.76735 8.36233 5.14221 8.23426 5.3345C8.10618 5.52679 7.94703 5.82379 7.77427 5.97731C7.77616 5.96236 7.77271 5.94722 7.76453 5.93456C7.76453 5.93456 7.77426 5.94812 7.75494 5.96758C7.73561 5.98705 7.73549 5.99665 7.74522 6.00599L7.77441 6.03504C7.78401 6.03503 8.05201 5.91451 8.41697 5.57406C8.80523 5.21863 9.10227 5.03628 9.25765 4.97377C9.34051 4.93853 9.42712 4.91287 9.5158 4.89729L9.51567 4.89729Z" fill="#C29637"/>
  <path fill-rule="evenodd" clip-rule="evenodd" d="M16.1445 3.43559C16.1445 3.43559 16.0823 3.51318 16.0046 3.5987C15.8319 3.78128 15.6066 3.98703 15.4144 4.1988C15.2321 4.40083 15.0263 4.5582 14.7952 4.82232C14.5641 5.08645 14.2962 5.37964 14.2284 5.46516C14.1663 5.55068 14.1178 5.69047 14.1178 5.76228C14.0848 5.73899 14.046 5.71379 14.046 5.71379C14.0624 5.74427 14.0819 5.77293 14.1043 5.79928C14.1528 5.86723 14.2285 5.95284 14.2674 6.00506C14.3152 6.07153 14.3495 6.1467 14.3683 6.22634C14.3916 6.23018 14.5411 6.25932 14.7276 5.95245C14.914 5.64559 15.1584 5.30965 15.1584 5.30965L15.5466 4.73278L15.7912 4.2435L16.0982 3.69583L16.1449 3.43559L16.1445 3.43559Z" fill="#AC8132"/>
  <path fill-rule="evenodd" clip-rule="evenodd" d="M16.5424 3.04329C16.5424 3.04329 16.3075 3.23535 16.2162 3.35057C16.125 3.4658 15.9091 3.76819 15.9091 3.76819L15.9868 3.75844L16.381 3.4089L16.5345 3.13507L16.5423 3.0438L16.5424 3.04329Z" fill="#A88F33"/>
  <path fill-rule="evenodd" clip-rule="evenodd" d="M16.4746 18.4743C16.4746 18.4743 16.4708 18.3151 16.5601 18.2199C16.6513 18.1247 16.8823 17.9848 17.1075 17.4605C17.3326 16.9361 17.3576 16.8177 17.3576 16.8177C17.3576 16.8177 16.9539 17.1634 16.705 17.245C16.7632 17.1246 16.7962 17.0392 16.8253 16.977C16.7923 16.9479 16.6525 16.9149 16.639 16.8995C16.7165 16.8217 16.7592 16.6314 16.9165 16.5051C17.1184 16.3515 17.4872 16.0875 17.7739 15.8521C18.0606 15.6168 18.6241 15.0694 18.696 14.9102C18.7388 14.9722 18.7484 15.011 18.7484 15.011C18.7484 15.011 18.4651 15.3801 18.3176 15.615C18.1875 15.8171 18.1972 15.9316 18.1972 15.9316L18.4652 15.8163C18.4652 15.8163 18.5429 16.1037 18.1916 16.5408C18.3452 16.4825 18.4072 16.5174 18.4945 16.4688C18.3507 16.5602 18.1527 16.6845 17.9665 17.0262C17.784 17.368 17.5356 17.7662 17.1163 18.0147C16.7086 18.277 16.4736 18.4731 16.4736 18.4731L16.4746 18.4743Z" fill="#A67A2E"/>
  <path fill-rule="evenodd" clip-rule="evenodd" d="M15.4187 5.36209C15.4187 5.36209 15.2596 5.69404 15.2364 5.95235C15.2325 6.01456 15.2169 6.06307 15.2169 6.13488C15.2132 6.36592 15.2306 6.62422 15.1787 6.74456C15.1592 6.69605 15.1495 6.66303 15.13 6.64371C15.101 6.72525 15.0486 6.9796 15.0059 7.07471C14.9865 7.01264 14.9437 6.7971 14.9476 6.54276C14.9515 6.28843 14.9571 6.23978 14.9571 6.18743C14.9475 6.265 14.8951 6.36998 14.8757 6.43206C14.8466 6.37972 14.8135 6.31176 14.7746 6.25545C14.7513 6.29386 14.7223 6.35057 14.6971 6.37976C14.6931 6.35646 14.6835 6.29426 14.6776 6.20696C14.6737 6.10597 14.6678 5.97593 14.6737 5.94866C14.6833 5.89631 14.7649 5.69046 14.9376 5.502C15.1434 5.27666 15.355 4.84371 15.417 4.70968C15.4791 4.57564 15.743 4.01839 15.743 4.01839L15.945 4.01833L15.6519 4.68632C15.6519 4.68632 15.4753 5.05142 15.3841 5.18559C15.2929 5.31976 15.1007 5.70419 15.0153 5.85372C15.0773 5.77217 15.1298 5.7294 15.192 5.65169C15.2521 5.59727 15.419 5.36235 15.419 5.36235L15.4187 5.36209Z" fill="#8C6228"/>
  <path fill-rule="evenodd" clip-rule="evenodd" d="M16.5463 3.01794C16.5133 3.11949 16.4612 3.21379 16.3928 3.29574C16.2724 3.43952 16.0141 3.63171 15.8881 3.78509C15.7729 3.93463 15.5426 4.3425 15.6474 4.82592C15.6858 4.72108 15.7581 4.51332 15.9503 4.27826C16.1425 4.0432 16.3482 3.77332 16.4493 3.56363C16.5501 3.35189 16.5636 3.18498 16.5636 3.18498L16.602 3.13645L16.5787 3.02574L16.5456 3.01794L16.5463 3.01794Z" fill="#CBA94C"/>
  <path fill-rule="evenodd" clip-rule="evenodd" d="M20.4819 15.8965C20.4819 15.8965 20.4041 15.6849 20.3808 15.4927C20.3574 15.3004 20.4191 15.2623 20.3476 15.0423C20.3048 14.9082 20.2273 14.9271 20.2078 14.9083C20.1884 14.8895 20.1747 14.687 20.1785 14.5762C20.1824 14.4655 20.1746 14.3219 20.1552 14.2597C20.1261 14.2364 20.1066 14.217 20.0639 14.0734C20.0153 13.9296 19.992 13.8578 19.9687 13.8152C19.9454 13.7726 19.8773 13.7337 19.8773 13.691C19.8772 13.6054 19.9549 13.5609 19.9549 13.5373C19.9511 13.4888 19.8928 13.5277 19.8772 13.5141C19.8579 13.4908 19.9258 13.351 19.9006 13.3315C19.8909 13.3219 19.8229 13.4035 19.8054 13.3802C19.7859 13.3568 19.7625 13.1257 19.7276 12.9724C19.6946 12.8229 19.6595 12.7142 19.6557 12.6696C19.6518 12.6268 19.3874 11.8735 19.3234 11.691C19.2718 11.5368 19.2283 11.3799 19.1932 11.2211C19.1737 11.1299 19.1601 10.9434 19.1504 10.9628C19.1407 10.9823 19.1466 11.0774 19.131 11.0736C19.1174 11.0696 19.0688 10.7377 19.0533 10.6852C19.0397 10.6327 18.958 10.4548 18.938 10.3261C18.9185 10.1959 18.8758 9.85609 18.8465 9.62505C18.8173 9.39402 18.8037 9.29892 18.8037 9.24106C18.8084 9.09955 18.8006 8.9579 18.7803 8.81777C18.7418 8.57305 18.6649 8.27598 18.5975 8.10333C18.4674 7.77709 18.1215 6.94224 18.0596 6.73451C18.0596 6.68203 18.1275 6.7112 18.1275 6.7112C18.1275 6.7112 18.2965 7.13445 18.4209 7.46056C18.5414 7.7868 18.656 8.07413 18.6852 8.1033C18.7085 8.13235 18.8911 8.45269 18.9728 8.97696C19.0545 9.50122 19.0837 9.98467 19.1324 10.307C19.1557 10.4606 19.1752 10.6235 19.2238 10.7866C19.2762 10.9633 19.3578 11.1458 19.4647 11.4253C19.5561 11.6603 19.6241 11.8564 19.661 12.0253C19.7038 12.2409 19.7039 12.404 19.7291 12.5108C19.7525 12.6021 19.7874 12.7845 19.8691 13.0484C19.9509 13.3123 20.0712 13.6522 20.1528 13.8638C20.3122 14.2871 20.3834 14.6404 20.4075 14.8289C20.4288 15.023 20.5009 15.6949 20.4815 15.8967L20.4819 15.8965Z" fill="#A88F33"/>
  <path fill-rule="evenodd" clip-rule="evenodd" d="M16.556 2.99458L16.5463 3.01787C16.5463 3.01787 16.5754 3.02759 16.5696 3.06651C16.5701 3.11975 16.5668 3.17295 16.5599 3.22574C16.5504 3.29371 16.5309 3.34607 16.5271 3.38882C16.5271 3.48009 16.5407 3.58492 16.412 3.84518C16.3736 3.91699 16.35 3.97908 16.3305 4.02184C16.282 4.12668 16.2723 4.1423 16.2296 4.19082C16.2975 4.15241 16.5422 3.99874 16.6664 4.02175C16.581 4.07028 16.4509 4.16555 16.3694 4.28986C16.3888 4.29369 16.4704 4.30929 16.5998 4.2898C16.8153 4.25671 17.0561 4.17895 17.2677 4.19439C17.4988 4.20789 17.4075 3.91672 17.4075 3.91672L17.1406 3.33042L16.6356 2.97535L16.556 2.9947L16.556 2.99458Z" fill="#BE9C44"/>
  <path fill-rule="evenodd" clip-rule="evenodd" d="M17.8737 7.38666C17.8737 7.38666 17.6483 7.16144 17.5569 6.38834C17.4654 5.61166 17.4846 4.46836 17.4846 4.46836L17.3019 4.02182C17.3019 4.02182 17.2634 3.72474 17.1678 3.61417C17.0721 3.50361 16.8843 3.31716 16.7988 3.22592C16.7133 3.13468 16.6162 3.01042 16.5579 2.99098C16.587 2.94246 16.7171 2.66863 17.216 2.66466C17.715 2.66068 17.8689 2.93827 17.921 3.03925C17.9732 3.14023 18.2085 3.57678 18.2961 4.40875C18.3778 5.23971 18.3818 5.30191 18.3683 5.58928C18.3586 5.74851 18.3062 6.11742 18.215 6.51156C18.1316 6.84566 18.0404 7.21855 17.8734 7.38743L17.8737 7.38666Z" fill="#A17C34"/>
  <path fill-rule="evenodd" clip-rule="evenodd" d="M17.1674 8.04892C17.2425 8.05431 17.3175 8.03737 17.3829 8.00022C17.4547 7.99636 17.715 8.02931 17.9148 7.77492C17.9284 7.83303 17.9635 7.99046 17.8722 8.13026C17.9208 8.08161 17.9926 8.06226 18.0023 8.04869C18.0062 8.1205 18.0742 8.34179 17.787 8.87973C17.8646 8.79433 17.9558 8.79814 18.0374 8.78839C18.0414 8.88939 18.0957 9.22908 17.9522 9.41178C17.8571 9.53609 17.7017 9.49722 17.7017 9.49722C17.7039 9.47009 17.7039 9.44282 17.7017 9.41568C17.6978 9.36321 17.6783 9.31086 17.692 9.27591C17.6169 9.24163 17.5485 9.19428 17.49 9.13606C17.321 8.97688 17.1015 8.70519 17.086 8.50321C17.0665 8.27794 17.2684 8.22937 17.2684 8.22937C17.2515 8.21424 17.2371 8.19653 17.2257 8.1769C17.2159 8.14401 17.2062 8.09153 17.1674 8.04892Z" fill="#8C6228"/>
  <path fill-rule="evenodd" clip-rule="evenodd" d="M15.6692 5.60657C15.6692 5.60657 15.6595 5.59301 15.6071 5.6551C15.6168 5.59302 15.6266 5.53465 15.6304 5.47833C15.6551 5.42618 15.6872 5.37782 15.7256 5.33469C15.6964 5.39281 15.677 5.44529 15.677 5.44529C15.677 5.44529 15.7489 5.31126 15.8537 5.22969C15.9255 5.17143 16.0167 5.14427 16.0555 5.08986C16.0982 5.03161 16.0885 5.02189 16.0982 5.01216C16.0982 5.01216 16.1934 4.95005 16.339 4.76735C16.3584 4.74405 16.3875 4.71883 16.407 4.69553C16.4399 4.68195 16.5176 4.64699 16.6088 4.60024C16.704 4.54786 16.8108 4.47603 16.8768 4.44657C17.0069 4.3883 17.1448 4.39415 17.2088 4.30274C17.2573 4.28916 17.3096 4.14348 17.3 4.01932C17.3718 4.04836 17.7408 4.27738 17.8672 4.77834C17.9586 5.13364 17.7956 5.68127 17.7277 5.94548C17.6598 6.20969 17.6502 6.40566 17.555 6.526C17.4346 6.6854 17.0464 6.91014 16.9512 7.0214C16.8697 7.11268 16.6252 7.34379 16.6348 7.5107C16.6446 7.63499 16.7979 7.70266 16.8311 7.7262C16.8643 7.74974 16.864 7.77867 16.9262 7.76457C16.9884 7.75048 17.0116 7.7218 17.0369 7.72179C17.066 7.72562 17.066 7.73151 17.0796 7.73151C17.0894 7.73121 17.0992 7.72988 17.1087 7.72753C17.1087 7.72753 17.0991 7.9043 16.6855 7.95805C16.6563 7.96202 16.6273 7.97163 16.5903 7.97753C16.6389 7.95422 16.668 7.95421 16.7204 7.88239C16.6622 7.87268 16.4951 7.86299 16.4524 7.84944C16.466 7.82614 16.5106 7.76392 16.5475 7.73485C16.5805 7.70579 16.5436 7.69645 16.5146 7.71156C16.4645 7.74561 16.4166 7.78255 16.3708 7.82219C16.3223 7.86496 16.2796 7.92321 16.2019 7.97584C16.1786 7.89815 16.1824 7.75057 16.2738 7.64379C16.2504 7.64764 16.2057 7.71561 16.1631 7.70206C16.1553 7.63124 16.1599 7.55961 16.1766 7.49034C16.1999 7.40291 16.326 7.24953 16.326 7.24953L16.9354 6.15996L17.0652 5.33471L15.6692 5.60632L15.6692 5.60657Z" fill="#92723A"/>
  <path fill-rule="evenodd" clip-rule="evenodd" d="M15.6363 5.65322C15.6363 5.65322 15.6033 5.67653 15.6693 5.72118C15.6596 5.73475 15.6363 5.78327 15.6071 5.8163C15.5743 5.85471 15.5392 5.87853 15.5256 5.91156C15.4966 5.97953 15.4733 6.02613 15.4733 6.05531C15.4733 6.0845 15.4637 6.27087 15.3822 6.39121C15.353 6.43397 15.32 6.50579 15.2967 6.55431C15.2482 6.6397 15.2055 6.70793 15.1958 6.74633C15.1764 6.81431 15.1629 7.00068 15.1629 7.00068C15.1629 7.00068 15.2057 6.94819 15.2211 6.92885C15.1977 6.97737 15.1725 7.02973 15.1357 7.06865C15.159 7.04919 15.2269 7.00066 15.3415 6.89964C15.5007 6.76571 15.7492 6.54036 16.0521 6.36185C15.9607 6.3949 15.8831 6.39492 15.8211 6.40466C15.8696 6.35614 16.3063 5.84338 16.5354 5.79481C16.5493 5.77716 16.5562 5.75501 16.5548 5.73259L16.3586 5.71332L15.9606 5.7988L15.9024 5.49162L15.6363 5.65284L15.6363 5.65322Z" fill="#B18E3E"/>
  <path fill-rule="evenodd" clip-rule="evenodd" d="M16.2698 7.40062C16.2698 7.40062 16.2174 7.45299 16.1689 7.58318C16.1315 7.54419 16.0995 7.50043 16.0736 7.45303C16.0018 7.33273 15.8912 7.17928 15.6329 7.26678C15.629 7.18524 15.6231 7.14249 15.6328 7.08425C15.6756 7.07464 15.8056 6.96977 15.9356 6.81626C16.027 6.71141 16.1123 6.59094 16.1705 6.43758C16.2089 6.40838 16.2753 6.35985 16.3625 6.30351C16.4867 6.2181 16.6362 6.10145 16.6595 5.9714C16.6012 5.99471 16.477 6.05298 16.2905 6.04343C16.3624 6.01039 16.473 5.97542 16.4594 5.83168C16.4886 5.81221 16.5118 5.79864 16.5118 5.79864C16.49 5.79134 16.4669 5.78805 16.4439 5.78893C16.4399 5.77536 16.4341 5.75604 16.4011 5.76564C16.3681 5.77525 16.3627 5.77538 16.3584 5.78895C16.3448 5.79292 16.3001 5.78897 16.2671 5.8124C16.2341 5.83583 16.1429 5.9133 16.1079 5.92687C16.1215 5.90358 16.1408 5.86875 16.1408 5.86875C16.1408 5.86875 16.0457 5.87838 15.9777 5.9072C15.8535 5.94998 15.7099 6.02772 15.5642 6.1034C15.5778 6.08011 15.5837 6.065 15.5933 6.06064C15.6029 6.05629 15.6263 6.05104 15.6263 6.04707C15.6263 6.0431 15.6167 6.00867 15.6224 5.99472C15.6659 5.90245 15.7173 5.81409 15.776 5.73061C15.8439 5.6392 15.8574 5.50915 15.8574 5.50915L16.1545 5.35957L16.9894 5.16734L17.5312 5.20022L17.4633 5.57502L17.1435 6.22944L16.8699 6.82561L16.5573 7.19088L16.27 7.40062L16.2698 7.40062Z" fill="#543E26"/>
  <path fill-rule="evenodd" clip-rule="evenodd" d="M17.6228 5.77838C17.6228 5.77838 17.2966 6.18231 17.2054 6.24454C17.2636 6.12024 17.6227 5.3803 17.7526 5.17444C17.7236 5.15116 17.6847 5.15117 17.7758 4.79044C17.6983 4.97286 17.6711 5.0681 17.6071 5.11663C17.5431 5.16516 17.5352 5.14967 17.4919 5.14968C17.5001 5.1349 17.5034 5.11794 17.5015 5.10117C17.5015 5.10117 17.2277 5.06822 17.0407 5.06827C16.8537 5.06832 16.4835 5.16941 16.2776 5.251C16.1145 5.31901 16.0233 5.31904 15.9651 5.36168C15.9068 5.4102 15.8738 5.46269 15.8446 5.47627C15.8213 5.48984 15.7108 5.52482 15.6854 5.56169C15.6621 5.60009 15.6234 5.64324 15.6234 5.65297C15.6234 5.6627 15.6136 5.67639 15.6428 5.66653C15.6524 5.66269 15.7244 5.62376 15.8059 5.57522C15.9165 5.51311 16.0504 5.44127 16.1476 5.39849C16.4252 5.2877 16.5126 5.30713 16.6368 5.2838C16.7668 5.26047 16.9533 5.20602 17.0775 5.20598C17.2017 5.20211 17.4368 5.20589 17.4912 5.2156C17.4679 5.23506 17.4484 5.25837 17.4582 5.3399C17.4582 5.36319 17.4387 5.38842 17.4198 5.44474C17.3617 5.60399 17.2511 5.86808 17.1895 6.00211C17.1042 6.18454 17.0072 6.33804 16.9593 6.43315C16.9113 6.52827 16.8058 6.77879 16.7012 6.91284C16.5967 7.04688 16.542 7.12843 16.5093 7.15762C16.4765 7.18682 16.2413 7.35955 16.2589 7.42176C16.3016 7.40818 16.5715 7.30647 16.7674 7.08575C16.9633 6.86502 17.0023 6.73036 17.1557 6.60987C17.309 6.48938 17.4294 6.28749 17.5011 6.12056C17.5612 5.96515 17.5477 5.91664 17.6233 5.77877L17.6228 5.77838Z" fill="#806031"/>
  <path fill-rule="evenodd" clip-rule="evenodd" d="M10.5925 8.79436C10.5925 8.79436 10.5498 8.97101 10.4527 9.05846C10.3576 9.14399 10.1886 9.21776 10.1694 9.36151C10.1461 9.50513 10.3384 9.57702 10.3384 9.57702C10.3384 9.57702 10.2335 9.74985 10.2335 9.87989C10.2335 10.0139 10.2297 10.0391 10.2433 10.1673C10.2279 10.1772 10.2148 10.1903 10.2049 10.2057C10.2049 10.2057 10.2145 10.3299 10.3098 10.4075C10.405 10.485 10.4865 10.5317 10.535 10.5123C10.5424 10.5281 10.5489 10.5443 10.5544 10.5609C10.5544 10.5609 10.6263 10.3783 10.6748 10.2191C10.7233 10.056 10.766 10.0792 10.7853 9.85978C10.8046 9.64038 11.0155 9.26362 11.0155 9.26362L11.1595 8.94166L10.9245 8.7592L10.5925 8.79423L10.5925 8.79436Z" fill="#B6903C"/>
  <path fill-rule="evenodd" clip-rule="evenodd" d="M11.0296 9.11071C10.9811 9.16045 10.9364 9.21368 10.8958 9.26998C10.8338 9.3555 10.7853 9.43308 10.694 9.46626C10.6028 9.49943 10.5445 9.49919 10.5503 9.59058C10.5561 9.68197 10.6416 9.72061 10.6901 9.76719C10.7426 9.81568 10.7854 9.89721 10.7621 9.98861C10.7912 9.97503 10.8437 9.9594 10.8922 9.85456C10.9406 9.74971 11.2798 9.11077 11.2798 9.11077L11.0296 9.11084L11.0296 9.11071Z" fill="#685026"/>
  <path fill-rule="evenodd" clip-rule="evenodd" d="M12.3673 7.6365C12.3673 7.6365 12.3963 7.55892 12.3673 7.50261C12.3381 7.44438 12.1614 7.42497 12.074 7.35895C11.9827 7.291 11.872 7.2438 11.7807 7.27365C11.7943 7.24062 11.8486 7.16867 11.804 7.15319C11.7612 7.13964 11.6021 7.21149 11.5594 7.24452C11.5166 7.27756 11.4195 7.31637 11.4002 7.3398C11.3809 7.36323 11.3477 7.40778 11.3283 7.38833C11.3088 7.37477 11.2992 7.33983 11.2662 7.35916C11.2331 7.3785 11.0742 7.50872 11.0449 7.5845C11.0156 7.66028 10.9497 7.82926 10.7518 8.02144C10.5538 8.21362 10.4683 8.33806 10.5266 8.40986C10.5849 8.48165 10.6121 8.42929 10.6219 8.49137C10.6294 8.55231 10.6261 8.61409 10.6122 8.6739C10.5889 8.7749 10.5502 8.87001 10.6025 8.88945C10.7365 8.93217 10.8667 8.85098 10.8958 8.87581C10.954 8.92814 10.8628 9.11658 11.0007 9.15341C11.1406 9.19177 11.2784 9.12031 11.2784 9.12031L11.787 8.84638L12.2763 8.58808L12.5265 8.09278L12.3921 7.67924L12.3665 7.6365L12.3673 7.6365Z" fill="#D4B968"/>
  <path fill-rule="evenodd" clip-rule="evenodd" d="M11.8877 8.81926C11.8877 8.81926 11.8022 8.68924 11.9071 8.57452C12.012 8.45981 12.1614 8.41138 12.2196 8.33956C12.2085 8.32589 12.1937 8.31579 12.1769 8.31052C12.2155 8.24133 12.2745 8.18568 12.3458 8.15111C12.3167 8.12206 12.2778 8.09878 12.2352 8.09879C12.14 8.09881 12.0816 8.15707 11.9943 8.15709C11.9089 8.15711 11.8992 8.11437 11.8992 8.11437C11.8992 8.11437 12.0429 8.10076 12.0292 8.03663C12.0156 7.96867 11.9908 7.96868 11.9908 7.96868C11.9908 7.96868 12.2684 7.8534 12.3169 7.79195C12.3654 7.7305 12.3596 7.65792 12.3693 7.62886C12.4022 7.62885 12.5945 7.52781 12.6722 7.57054C12.7499 7.61327 12.6955 7.72977 12.6955 7.72977C12.6955 7.72977 12.9306 7.55294 13.0504 7.37959C13.1552 7.38929 13.2039 7.30774 13.2807 7.30772C13.376 7.3077 13.5255 7.4377 13.5546 7.71533C13.5741 7.87456 13.6032 7.96581 13.5742 8.24742C13.5607 8.40666 13.5646 8.74662 13.6128 8.91531C13.6457 9.04932 13.7234 9.03573 13.7234 9.03573C13.7115 9.07657 13.6879 9.11302 13.6555 9.14058C13.603 9.18911 13.5973 9.31737 13.6031 9.36588C13.6108 9.40134 13.6206 9.43634 13.6323 9.4707C13.6323 9.4707 13.5702 9.54252 13.5546 9.59117C13.5411 9.63968 13.4771 9.67273 13.4304 9.67274C13.3836 9.67275 13.4071 9.66878 13.345 9.67276C13.2829 9.67675 13.2635 9.68635 13.2245 9.67279C13.1856 9.65924 13.1566 9.64363 13.1721 9.51921C13.1857 9.39492 12.6924 9.10577 12.6924 9.10577L11.8859 8.81863L11.8877 8.81926Z" fill="#CCA849"/>
  <path fill-rule="evenodd" clip-rule="evenodd" d="M10.9618 10.0466C10.9618 10.0466 11.1385 10.2816 11.8648 10.2814C12.2104 10.2813 12.3308 10.2482 12.4023 10.2288C12.48 10.2093 12.7712 10.0948 13.0644 9.74896C13.3283 9.43631 13.2701 9.3082 13.2701 9.3082L13.1165 9.28494L12.6173 9.35305L11.1403 9.98256L10.9611 10.0466L10.9618 10.0466Z" fill="#585136"/>
  <path fill-rule="evenodd" clip-rule="evenodd" d="M11.5035 10.1048C11.5035 10.1048 10.8744 10.2448 10.8743 9.84676C10.8742 9.45841 11.2624 9.0505 11.3596 8.97866C11.4605 8.9067 11.7013 8.82497 11.7013 8.82497L12.2819 8.82482L12.3926 9.11804L12.3442 9.75101L11.5035 10.1046L11.5035 10.1048Z" fill="#252211"/>
  <path fill-rule="evenodd" clip-rule="evenodd" d="M12.0837 8.94347C12.0837 8.94347 11.9633 8.83278 11.6896 8.98198C11.4158 9.13117 11.1945 9.44291 11.181 9.72592C11.1675 9.97629 11.3869 10.1627 11.7287 10.1724C11.983 10.1819 12.1365 10.1528 12.2142 10.1338C12.1947 10.1105 12.0937 9.98436 12.0937 9.98436L12.0838 8.9436L12.0837 8.94347Z" fill="#C3B378"/>
  <path fill-rule="evenodd" clip-rule="evenodd" d="M11.9653 9.00552C11.9653 9.00552 11.9362 8.98223 11.8501 9.02885C11.7783 9.06727 11.6735 9.1688 11.592 9.24063C11.5395 9.2834 11.5065 9.30273 11.4768 9.33577C11.3564 9.47954 11.2555 9.71458 11.3139 9.83104C11.3723 9.94751 11.5644 10.0815 12.0538 9.99007L11.9639 9.00565L11.9653 9.00552Z" fill="#E6D89C"/>
  <path fill-rule="evenodd" clip-rule="evenodd" d="M11.8061 9.24636C11.8061 9.24636 11.7285 9.36683 11.7285 9.55908C11.7286 9.75518 11.8394 10.0677 12.2472 10.0909C12.5598 10.1103 12.7693 9.64034 12.9965 9.45775C13.1692 9.31793 13.2741 9.31393 13.2741 9.31393C13.2741 9.31393 13.0974 9.12198 12.6255 8.8734C12.1594 8.62303 11.637 8.59015 11.3536 8.97473C11.4876 8.96497 11.9206 8.85413 11.9206 8.85413L12.1323 8.92205L11.8061 9.24649L11.8061 9.24636Z" fill="#252211"/>
  <path fill-rule="evenodd" clip-rule="evenodd" d="M12.4161 9.50061C12.4025 9.47156 12.3928 9.43265 12.4491 9.42304C12.5054 9.41342 12.5306 9.41905 12.5501 9.46141C12.5695 9.50377 12.5885 9.53909 12.5597 9.55664C12.5306 9.57213 12.4549 9.55667 12.4159 9.50036L12.4161 9.50061ZM12.3247 9.22684C12.3247 9.22684 12.3053 9.24042 12.315 9.21328C12.3188 9.18038 12.3442 9.12201 12.4062 9.13569C12.4683 9.14937 12.4549 9.21721 12.4447 9.23667C12.4344 9.25613 12.3826 9.28904 12.3437 9.2751C12.3388 9.27384 12.3342 9.27143 12.3304 9.26807C12.3265 9.26472 12.3235 9.26051 12.3216 9.25578C12.3198 9.25106 12.319 9.24595 12.3194 9.24088C12.3199 9.23581 12.3215 9.23091 12.3242 9.22659L12.3247 9.22684Z" fill="#6F674D"/>
  <path fill-rule="evenodd" clip-rule="evenodd" d="M7.06853 9.35242C7.06853 9.35242 7.22216 9.46758 7.40059 9.46305C7.57723 9.45904 7.80438 9.27657 7.90918 9.15994C7.97124 9.09195 8.02434 9.02013 8.08193 8.9638C8.13055 8.91527 8.16344 8.89197 8.18673 8.85894C8.21974 8.82053 8.25467 8.74833 8.2722 8.7249C8.22946 8.75793 8.16739 8.81632 8.10327 8.85512C8.0412 8.89353 7.90721 8.96576 7.85281 8.98523C7.80047 9.0047 7.2568 9.29259 7.2568 9.29259L7.06853 9.35242Z" fill="#AC924C"/>
  <path fill-rule="evenodd" clip-rule="evenodd" d="M7.30302 7.91759C7.30302 7.91759 7.38838 7.85933 7.55349 7.8223C7.71271 7.78385 8.03309 7.7542 8.03309 7.7542L8.29719 7.86933L8.40212 8.26738L8.21024 8.68113L7.96567 8.83479L7.68779 8.38828L7.30366 7.91836L7.30302 7.91759Z" fill="#9F8E57"/>
  <path fill-rule="evenodd" clip-rule="evenodd" d="M6.95745 8.27294L6.86607 8.34119C6.86607 8.34119 6.88948 8.29843 6.90878 8.16838C6.92807 8.03833 7.02911 7.72175 7.17664 7.53919C7.32418 7.35662 7.32034 7.36635 7.32034 7.36635C7.30676 7.36387 7.2928 7.36431 7.27941 7.36765C7.26601 7.37098 7.25348 7.37714 7.24265 7.3857C7.26209 7.34268 7.38634 7.18905 7.51061 7.11222C7.63487 7.03538 7.68338 7.01118 7.81344 7.07374C7.94351 7.13629 7.97654 7.1688 8.07177 7.16493C8.167 7.16107 8.24838 7.06005 8.24838 7.06005C8.24838 7.06005 8.26786 7.12213 8.19609 7.26589C8.12432 7.40965 7.84088 7.70285 7.84088 7.70285L7.25065 8.10685L6.95745 8.27333L6.95745 8.27294Z" fill="#EAC970"/>
  <path fill-rule="evenodd" clip-rule="evenodd" d="M7.39404 7.86907C7.39404 7.86907 7.82132 7.9272 7.95134 7.80684C7.95518 7.82041 7.9708 7.82041 7.9708 7.83014C7.96976 7.83747 7.96634 7.84426 7.96108 7.84947C7.97522 7.8472 7.9895 7.84592 8.00383 7.84561C8.02093 7.8507 8.03852 7.85396 8.05631 7.85533C8.07064 7.85501 8.08492 7.85368 8.09906 7.85135C8.09771 7.861 8.09444 7.87028 8.08942 7.87864C8.08441 7.887 8.07777 7.89426 8.06989 7.9C8.08935 7.89999 8.10829 7.90383 8.10829 7.91931C8.1083 7.9348 8.11215 7.98152 8.08886 7.99126C8.06956 7.9966 8.04902 7.9952 8.03062 7.9873C8.03217 8.02407 8.04216 8.05998 8.05983 8.09226C8.09825 8.16405 8.18019 8.24582 8.29026 8.22224C8.29026 8.22224 8.34841 8.362 8.10389 8.67272C8.071 8.71548 8.03595 8.77373 7.99334 8.82226C7.97651 8.85897 7.96364 8.89738 7.95497 8.93683C7.95497 8.93683 8.36862 8.77748 8.48692 8.41432C8.60727 8.04923 8.63047 7.69005 8.60709 7.35419C8.60309 7.25896 8.58759 7.19112 8.56428 7.14249C8.50601 7.02206 8.34281 7.04156 8.27691 7.10954C8.1817 7.2048 8.02253 7.44164 7.80127 7.60477C7.57603 7.7679 7.56644 7.79684 7.39353 7.86907L7.39404 7.86907Z" fill="#D7BC6B"/>
  <path fill-rule="evenodd" clip-rule="evenodd" d="M6.88171 8.39347C6.88171 8.39347 6.80018 8.44201 6.75748 8.62391C6.71478 8.81028 6.79599 9.03746 6.84299 9.10926C6.88998 9.18105 6.99666 9.37725 7.21784 9.38692C7.27259 9.38661 7.32673 9.37537 7.37707 9.35385C7.45427 9.31842 7.52668 9.27338 7.59258 9.21978C7.6878 9.14794 7.76535 9.08584 7.75562 9.07996C7.73232 9.07024 7.16912 8.60434 7.16912 8.60434L6.95735 8.36811L6.88158 8.39373L6.88171 8.39347Z" fill="#585136"/>
  <path fill-rule="evenodd" clip-rule="evenodd" d="M7.41419 9.16601C7.41419 9.16601 7.52875 9.15638 7.5967 9.11361C7.66466 9.07084 7.19849 8.60889 7.19849 8.60889L7.23164 9.10808L7.41419 9.16601Z" fill="#453A25"/>
  <path fill-rule="evenodd" clip-rule="evenodd" d="M6.91863 8.35836C6.91863 8.35836 6.86042 8.46909 6.86043 8.49828C6.85073 8.59338 6.87999 8.89238 6.90331 8.98748C6.92664 9.08847 7.05288 9.24178 7.21608 9.24173C7.31695 9.24171 7.45684 9.17959 7.45683 9.1641C7.45683 9.14465 7.31308 9.12574 7.27427 9.05343C7.25097 9.01504 7.24121 8.91955 7.23581 8.82304C7.23196 8.76096 7.23194 8.69299 7.25523 8.66944C7.30769 8.61118 7.31725 8.44414 7.31725 8.44414L7.50352 8.09785L7.2584 8.09792L6.9652 8.28052L6.91863 8.35836Z" fill="#84754B"/>
  <path fill-rule="evenodd" clip-rule="evenodd" d="M6.84684 8.46533C6.84684 8.46533 7.03877 8.21094 7.21181 8.15252C7.38485 8.09411 7.4623 8.12916 7.4623 8.12916L7.36138 8.38749L7.21767 8.54676L7.22742 8.62829C7.22742 8.62829 7.20406 8.84385 7.34784 8.99332C7.49163 9.14278 7.59838 9.137 7.66058 9.13698C7.72279 9.13696 7.90134 9.08443 7.99254 8.86886C8.07403 8.66698 8.14193 8.40802 7.97878 8.14848C7.81935 7.89022 7.53788 7.88031 7.48348 7.88032C7.42908 7.88034 7.00195 7.90183 6.84684 8.46494L6.84684 8.46533Z" fill="#252211"/>
  <path fill-rule="evenodd" clip-rule="evenodd" d="M11.777 9.32794C11.7052 9.29494 11.7731 9.09306 11.8449 9.03083C11.9167 8.96861 12.0079 8.8969 12.1673 8.887C12.2254 8.88315 12.2817 8.92 12.2721 8.95891C12.2586 9.03072 12.1576 9.13174 12.0664 9.20357C11.9402 9.30268 11.8586 9.36478 11.777 9.32794Z" fill="#F7F7E7"/>
  <path fill-rule="evenodd" clip-rule="evenodd" d="M7.89333 8.22811C7.94581 8.22426 8.01379 8.26648 8.02737 8.32331C8.04096 8.38539 7.9944 8.50969 7.89341 8.50971C7.81187 8.50974 7.76909 8.40876 7.76908 8.3797C7.77 8.35581 7.77666 8.33249 7.78852 8.31173C7.79236 8.30584 7.80207 8.23787 7.89333 8.22811Z" fill="#F8F6DE"/>
  <path fill-rule="evenodd" clip-rule="evenodd" d="M7.13595 8.27288C7.13595 8.27288 7.00195 8.335 6.93991 8.46494C6.89558 8.56089 6.88219 8.66825 6.90159 8.77215C6.91133 8.82066 6.95988 8.94096 6.99291 8.98371C7.02595 9.02645 7.07063 9.05562 7.10365 9.05165C7.13667 9.04767 7.20449 8.96035 7.20448 8.908C7.20446 8.85565 7.20837 8.63421 7.27234 8.51374C7.32863 8.39341 7.13634 8.27301 7.13634 8.27301L7.13595 8.27288Z" fill="#D4C38B"/>
  <path fill-rule="evenodd" clip-rule="evenodd" d="M7.15558 8.26326C7.13229 8.27684 7.09351 8.2963 7.10312 8.32152C7.11285 8.34481 7.19439 8.35989 7.22359 8.41672C7.25663 8.47495 7.25665 8.53703 7.24693 8.56621C7.27229 8.55416 7.2953 8.53768 7.31488 8.51756C7.35762 8.46903 7.40995 8.4031 7.45463 8.40309C7.48381 8.40308 7.51287 8.41664 7.54013 8.41663C7.58289 8.41662 7.62551 8.40304 7.63138 8.35837C7.64097 8.30012 7.54982 8.24767 7.49734 8.25741C7.50706 8.21901 7.52061 8.1623 7.47785 8.1234C7.43508 8.0845 7.30121 8.15263 7.27204 8.17209C7.24286 8.19156 7.15558 8.26339 7.15558 8.26339L7.15558 8.26326Z" fill="#E2D59D"/>
  <path fill-rule="evenodd" clip-rule="evenodd" d="M10.2421 12.342L10.5294 12.257L10.611 12.3152C10.611 12.3152 10.6691 12.4395 10.7605 12.455C10.7313 12.5171 10.6556 12.5702 10.6596 12.6142C10.6635 12.6583 10.7023 12.6919 10.7023 12.6919C10.7023 12.6919 10.4441 13.1191 10.9531 13.5495C10.8326 13.598 10.6793 13.6647 10.5978 13.7032C10.6559 13.7167 10.7802 13.7415 10.8327 13.7886C10.8852 13.8357 10.8852 13.8507 10.9337 13.8798C10.9822 13.909 11.0113 13.9478 11.0017 13.9652C10.9687 13.9457 10.8579 13.8877 10.8386 13.9419C10.8193 13.9962 10.359 13.9751 10.359 13.9751L9.58233 14.1248C9.58233 14.1248 9.61137 14.0471 9.52981 13.9753C9.43469 13.89 9.31823 13.9792 9.19392 13.8841C9.03081 13.7599 9.02488 13.6162 8.97252 13.5619C9.02486 13.5289 9.13173 13.4803 9.38606 13.4466C9.37632 13.4271 9.34328 13.3689 9.36272 13.3165C9.386 13.2486 9.48301 13.2058 9.45394 13.1245C9.49669 13.1148 9.51601 13.1148 9.62286 12.9807C9.72381 12.8467 9.78589 12.8176 9.86358 12.8079C9.94127 12.7981 9.98787 12.8078 10.1316 12.6738C10.2324 12.5786 10.1995 12.4971 10.1995 12.4971C10.1995 12.4971 10.2654 12.4757 10.2422 12.3417L10.2421 12.342Z" fill="#CBAC5A"/>
  <path fill-rule="evenodd" clip-rule="evenodd" d="M9.39354 12.3854C9.39738 12.3659 9.41299 12.3562 9.51782 12.3659C9.62266 12.3756 10.2867 12.3036 10.4673 12.2938C10.6498 12.2802 11.2925 12.2897 11.6052 12.3556C11.918 12.4216 12.2344 12.4992 12.3878 12.5379C12.5414 12.5806 12.5898 12.596 12.5839 12.6154C12.58 12.6349 12.5455 12.6539 12.5256 12.6485C12.5063 12.6447 11.9975 12.4894 11.8403 12.4567C11.6831 12.4239 11.1392 12.3364 10.8418 12.3417C10.5642 12.3458 10.4535 12.338 10.2186 12.3652C9.98362 12.3945 9.59528 12.4333 9.4788 12.4179C9.36359 12.4043 9.3874 12.4043 9.39329 12.3849L9.39354 12.3854Z" fill="#D6BC6F"/>
  <path fill-rule="evenodd" clip-rule="evenodd" d="M10.957 13.9068C10.957 13.9068 11.3551 14.1222 11.4989 14.3863C11.6038 14.5823 11.4369 14.6795 11.4369 14.6795C11.4369 14.6795 11.6622 14.6795 11.633 14.8038C11.6195 14.8813 11.2448 15.0911 10.9943 15.2019C10.74 15.3127 10.7497 15.3069 10.6254 15.3263C10.505 15.3458 10.1749 15.288 10.1069 15.3847C10.039 15.4813 10.0686 15.5809 10.0875 15.5964C10.107 15.6099 10.2643 15.6294 10.2643 15.6294C10.2643 15.6294 10.2313 15.7206 9.90515 15.7304C9.57901 15.7403 9.49735 15.7635 9.47791 15.7985C9.45846 15.8314 9.53999 15.8121 9.68963 15.8369C9.83914 15.8601 10.0488 15.8752 10.0488 15.8752C10.0488 15.8752 9.98086 15.9334 9.80423 15.9801C9.60226 16.0325 9.28573 16.0812 9.19064 16.1395C9.23916 16.1725 9.31111 16.221 9.34426 16.2248C9.26273 16.2443 9.14805 16.2871 9.12873 16.3026C9.15779 16.322 9.19671 16.3453 9.19671 16.3453C9.19671 16.3453 9.03356 16.5414 8.93847 16.5901C8.84338 16.6388 8.29586 16.8931 8.10744 16.8447C7.63751 16.7205 7.57914 16.2059 7.46457 16.1672C7.29175 16.109 7.21025 16.2254 7.05675 16.1439C7.12471 16.0954 7.16169 16.0663 7.23349 16.0332C7.15578 15.9949 6.7538 15.7401 6.7538 15.7401C6.71174 15.6485 6.66507 15.5591 6.61395 15.4723C6.53622 15.3383 6.42186 15.1596 6.33606 15.0023C6.1496 14.6568 6.13983 14.4975 5.97082 14.3015C5.99999 14.2631 6.10086 14.2684 6.10086 14.2684L7.51666 14.7341L10.0269 14.8061L10.6794 13.874L10.9571 13.9069L10.957 13.9068Z" fill="#DFC677"/>
  <path fill-rule="evenodd" clip-rule="evenodd" d="M7.23897 15.3292C7.25412 15.346 7.27178 15.3605 7.29133 15.3719C7.33998 15.4049 7.4118 15.4438 7.46033 15.5019C7.47977 15.4729 7.52827 15.4204 7.61393 15.5019C7.69958 15.5834 7.80593 15.5253 7.87211 15.5446C7.94009 15.568 7.94393 15.5776 7.94393 15.5776C7.94393 15.5776 7.98232 15.5445 8.0682 15.5096C8.12068 15.4901 8.18275 15.4765 8.25071 15.4572C8.31279 15.4436 8.38075 15.4241 8.42747 15.4241C8.47023 15.4531 8.62362 15.616 9.23911 15.3754C9.81966 15.1499 9.95354 15.1247 10.0507 15.1595C10.0604 15.1362 10.0701 15.0915 10.2196 15.0973C10.2196 15.0353 10.0953 14.8236 10.0953 14.8236L9.40978 14.5889L9.03487 14.589L7.9107 14.7951L7.28782 15.1507L7.23935 15.33L7.23897 15.3292Z" fill="#C4A859"/>
  <path fill-rule="evenodd" clip-rule="evenodd" d="M6.86401 14.9352C6.86401 14.9352 6.87761 15.04 7.03303 15.1507C7.18666 15.2612 7.23493 15.3272 7.23493 15.3272C7.23493 15.3272 7.26411 15.2888 7.28739 15.2497C7.31068 15.2069 7.33012 15.1584 7.3689 15.1448C7.44659 15.1118 7.62325 15.1738 7.66215 15.1641C7.69518 15.1545 7.68543 15.0865 7.72037 15.0865C7.80191 15.0825 7.85428 15.1388 7.88346 15.1388C7.91264 15.1388 7.98432 15.1349 7.99405 15.1194C8.00377 15.1039 8.00757 14.9427 8.11827 14.8649C8.23869 14.7795 8.38629 14.8163 8.42546 14.8358C8.42547 14.8648 8.42933 14.9368 8.50702 14.9406C8.58472 14.9444 8.5924 14.9309 8.66063 14.9541C8.72886 14.9774 8.81013 14.9502 8.84702 15.0647C8.88005 15.0551 8.95774 15.0453 8.93825 14.9346C8.97665 14.9055 9.01018 14.8861 9.09181 14.7715C9.11126 14.7424 9.14414 14.7094 9.16948 14.6666C9.23745 14.6666 9.31898 14.653 9.42768 14.7481C9.39466 14.7714 9.37521 14.7865 9.36561 14.8102C9.39404 14.8383 9.42 14.8689 9.4432 14.9014C9.4724 14.9398 9.49187 14.9869 9.52873 14.9966C9.61028 15.0199 9.74428 14.9869 9.89379 14.9965C10.0375 15.0062 10.1579 15.0586 10.2104 15.0916C10.2298 15.082 10.2298 15.078 10.2783 15.0877C10.3268 15.0974 10.3637 15.1013 10.3113 15.0392C10.3404 15.0527 10.3734 15.0819 10.4026 15.0527C10.4318 15.0235 10.4549 14.9809 10.5365 14.9712C10.618 14.9614 10.6472 14.975 10.6802 14.8896C10.7229 14.7847 10.5753 14.7848 10.5753 14.7848C10.5753 14.7848 10.6433 14.7226 10.719 14.641C10.8103 14.5556 10.9151 14.4449 10.9403 14.3089C10.9829 14.0584 10.7383 14.0256 10.7383 14.0256L9.55199 14.3909L8.10148 14.3194L6.86478 14.9353L6.86401 14.9352Z" fill="#927D49"/>
  <path fill-rule="evenodd" clip-rule="evenodd" d="M5.79701 11.5083C5.79701 11.5083 5.75862 11.5568 5.73497 11.6714C5.71132 11.7859 5.72143 11.7724 5.70199 11.8539C5.68256 11.9354 5.4438 12.7472 5.53348 13.0209C5.62315 13.2947 5.77831 13.3956 5.8754 13.6169C5.89486 13.6654 5.91382 13.6946 5.92394 13.7374C5.957 13.881 5.92798 13.9917 5.9668 14.1354C5.98038 14.1839 6.01547 14.2403 6.06783 14.2985C6.18307 14.4188 6.37087 14.5333 6.45192 14.6148C6.56638 14.7352 6.72965 14.9799 6.9374 15.003C7.04812 15.0166 7.20542 14.9699 7.33545 14.8923C7.45063 14.8203 7.52177 14.7195 7.64259 14.6618C7.72795 14.6191 7.81921 14.6035 7.90074 14.5841C8.06969 14.551 8.22316 14.5456 8.31443 14.5645C8.45422 14.5936 8.78436 14.6945 8.96727 14.6945C9.1102 14.6922 9.25232 14.6726 9.39055 14.6361C9.66816 14.5545 10.004 14.4145 10.2254 14.3524C10.3555 14.314 10.4603 14.3038 10.5672 14.2805C10.7497 14.2377 10.903 14.1794 10.9904 14.0687C10.9321 14.0007 10.8603 13.8959 10.4718 13.8999C10.0311 13.9097 9.52239 14.1544 9.2719 14.1934C9.02142 14.2324 8.91275 14.2653 8.63305 14.1644C8.35884 14.0625 8.34974 13.995 8.34974 13.995C8.34974 13.995 8.06181 13.7938 7.94123 13.2805C7.82064 12.7673 7.94099 12.3932 8.2536 12.0377C8.33511 11.9464 8.31563 11.8649 8.31563 11.8649C8.31563 11.8649 8.52138 11.5872 8.46499 11.3272C8.40284 11.0689 8.00477 11.1215 8.00477 11.1215L5.79713 11.5083L5.79701 11.5083Z" fill="#6E6342"/>
  <path fill-rule="evenodd" clip-rule="evenodd" d="M6.12928 12.3723C6.11217 12.4045 6.10412 12.4407 6.10601 12.4771C6.10986 12.5295 6.1255 12.5975 6.28272 12.7509C6.41677 12.8847 6.38763 13.0343 6.38763 13.0343C6.38763 13.0343 6.45509 13.0478 6.63811 12.9621C6.78183 12.8941 6.83012 13.0146 6.83012 13.0146C6.87196 12.9926 6.91731 12.9781 6.96412 12.9718C7.00654 12.9678 7.0476 12.9547 7.08443 12.9333C7.08443 12.9333 7.25344 13.1061 7.40105 13.1876C7.53508 13.2595 7.61279 13.308 7.67883 13.2594C7.74089 13.2167 7.74087 13.1293 7.73689 13.0905C7.72148 13.0547 7.70197 13.0208 7.67875 12.9895C7.63598 12.9274 7.568 12.8555 7.5635 12.7975C7.55374 12.6636 7.66441 12.5042 7.64098 12.4655C7.61755 12.4267 7.53038 12.417 7.31484 12.4947C7.09163 12.5685 6.12838 12.3727 6.12838 12.3727L6.12928 12.3723Z" fill="#39331F"/>
  <path fill-rule="evenodd" clip-rule="evenodd" d="M6.63833 13.2401C6.63833 13.2401 6.52771 13.1353 6.56635 12.6265C6.6133 12.6258 6.66019 12.6304 6.70613 12.6401C6.70613 12.6401 6.76653 13.0343 6.63833 13.2401Z" fill="#292311"/>
  <path fill-rule="evenodd" clip-rule="evenodd" d="M5.84955 11.1198C5.86498 11.1084 5.87929 11.0955 5.89229 11.0814C5.85391 11.1532 5.67671 11.4406 5.82057 11.8931C5.96444 12.3435 6.32561 12.6793 6.77029 12.6948C7.21497 12.7102 7.44864 12.4926 7.71581 12.1664C7.82061 12.0363 7.94101 11.8731 8.04774 11.7624C8.20692 11.5895 8.3312 11.5409 8.33115 11.374C8.33106 11.0323 7.98145 10.8789 7.46685 10.7257C6.95225 10.5725 6.48813 10.5915 6.24739 10.6966C6.01254 10.8111 5.91158 10.9315 5.84942 11.12L5.84955 11.1198Z" fill="#252211"/>
  <path fill-rule="evenodd" clip-rule="evenodd" d="M7.50238 13.3933L7.54078 13.3738C7.54078 13.3738 7.55034 13.2202 7.61254 13.2243C7.67463 13.234 7.70383 13.3157 7.69795 13.3447C7.69412 13.3738 7.67865 13.4224 7.61644 13.4165C7.5349 13.4185 7.502 13.3933 7.502 13.3933L7.50238 13.3933Z" fill="#3F3824"/>
  <path fill-rule="evenodd" clip-rule="evenodd" d="M7.32959 12.7409C7.32959 12.7409 7.36799 12.7273 7.41497 12.7739C7.45337 12.7738 7.62079 12.7543 7.67328 12.7874C7.72577 12.8204 7.74127 12.8494 7.74127 12.8494C7.74127 12.8494 7.54518 12.8922 7.43829 12.8495C7.32961 12.8127 7.32959 12.7409 7.32959 12.7409Z" fill="#2D2815"/>
  <path fill-rule="evenodd" clip-rule="evenodd" d="M8.19368 12.7696C8.19368 12.7599 8.08883 12.6881 7.9781 12.6647C7.95865 12.6609 7.95468 12.6745 7.93971 12.6745C7.92998 12.6706 7.92613 12.6415 7.92613 12.6415L7.86316 12.6746C7.86316 12.6746 7.85344 12.6882 7.88647 12.713C7.91553 12.7363 7.96418 12.7558 7.97775 12.7945C7.99133 12.8333 7.99134 12.8469 7.99723 12.8528C8.00107 12.8566 8.06903 12.8528 8.10205 12.8333C8.13507 12.8138 8.19727 12.7821 8.1933 12.7693L8.19368 12.7696Z" fill="#82764F"/>
  <path fill-rule="evenodd" clip-rule="evenodd" d="M7.21317 13.1642C7.21317 13.1642 7.23246 13.0303 7.36264 13.0244C7.49652 13.0146 7.5219 13.1447 7.5219 13.1447L7.44423 13.2224C7.44423 13.2205 7.38597 13.139 7.21381 13.1642L7.21317 13.1642Z" fill="#2D2816"/>
  <path fill-rule="evenodd" clip-rule="evenodd" d="M8.05765 12.5872C8.05765 12.5872 7.98574 12.6649 7.82664 12.6882C7.81307 12.6688 7.78387 12.63 7.82661 12.5679C7.86934 12.5058 7.91785 12.4863 7.96637 12.5057C7.98777 12.5091 8.00774 12.5186 8.02392 12.5331C8.04009 12.5475 8.0518 12.5663 8.05765 12.5872Z" fill="#574F35"/>
  <path fill-rule="evenodd" clip-rule="evenodd" d="M8.35083 12.6823C8.35479 12.6629 8.34122 12.659 8.35082 12.6493C8.36042 12.6396 8.41302 12.6202 8.42275 12.6298C8.42659 12.6338 8.42276 12.6493 8.42276 12.6682C8.42277 12.6872 8.42277 12.7066 8.41305 12.7206C8.39949 12.74 8.3607 12.7498 8.34125 12.744C8.32179 12.7383 8.31794 12.711 8.31794 12.7056C8.32754 12.7018 8.35083 12.692 8.35083 12.6823ZM8.68229 12.4726C8.68229 12.4628 8.71531 12.4434 8.73477 12.4434C8.76382 12.4434 8.76383 12.4667 8.7678 12.4725C8.7774 12.4764 8.7774 12.4686 8.78713 12.4861C8.79686 12.5036 8.81057 12.5346 8.80072 12.5541C8.79087 12.5735 8.75221 12.587 8.74261 12.5831C8.72904 12.5734 8.68627 12.4861 8.68229 12.4726Z" fill="#82764F"/>
  <path fill-rule="evenodd" clip-rule="evenodd" d="M8.01489 12.7271C8.01489 12.7271 8.05765 12.7366 8.1159 12.7853C8.09645 12.7988 8.06727 12.8143 8.06727 12.8143C8.06727 12.8143 8.06342 12.7697 8.01489 12.7269L8.01489 12.7271Z" fill="#6E6342"/>
  <path fill-rule="evenodd" clip-rule="evenodd" d="M7.91966 12.2999C7.90993 12.2903 7.94871 12.267 7.972 12.2708C7.9953 12.2746 8.00503 12.2902 8.03025 12.2941C8.05547 12.2979 8.05943 12.2843 8.06864 12.2746C8.07786 12.2649 8.1114 12.2707 8.11716 12.2746C8.12074 12.2788 8.124 12.2834 8.12689 12.2882C8.12729 12.2808 8.12922 12.2735 8.13254 12.2669C8.13586 12.2603 8.14052 12.2545 8.14621 12.2497C8.15365 12.2443 8.16224 12.2406 8.17133 12.2389C8.18042 12.2372 8.18977 12.2376 8.19868 12.24C8.20253 12.2536 8.222 12.3021 8.21816 12.3118C8.21432 12.3215 8.15608 12.3352 8.14623 12.3254C8.15596 12.3488 8.19873 12.3973 8.20449 12.4069C8.21025 12.4165 8.16175 12.4399 8.14242 12.4361C8.11528 12.4342 7.94821 12.3371 7.91915 12.3002L7.91966 12.2999ZM8.17391 11.9775C8.17031 11.9677 8.16343 11.9595 8.15445 11.9542C8.14088 11.9504 8.09621 11.9542 8.09621 11.9775C8.09622 12.0008 8.13465 12.1311 8.17781 12.1989C8.22647 12.2669 8.25938 12.3231 8.29241 12.3387C8.30278 12.3434 8.31455 12.344 8.32535 12.3404C8.33616 12.3368 8.34519 12.3292 8.35064 12.3192C8.35448 12.3095 8.36419 12.2377 8.3603 12.0687C8.35642 11.8997 8.35048 11.7367 8.34075 11.7269C8.33102 11.7172 8.29224 11.7174 8.27868 11.7367C8.26511 11.756 8.17774 11.9484 8.17378 11.9775L8.17391 11.9775Z" fill="#585136"/>
  <path fill-rule="evenodd" clip-rule="evenodd" d="M8.00139 12.9717C8.00139 12.9717 7.93341 12.929 7.86737 12.9582C7.8053 12.9874 7.80917 13.1019 7.80917 13.1019C7.82314 13.1074 7.83823 13.1094 7.85313 13.1077C7.86803 13.106 7.88229 13.1007 7.89467 13.0922C7.93742 13.0631 7.99167 13.0146 8.00139 12.9718L8.00139 12.9717Z" fill="#574F35"/>
  <path fill-rule="evenodd" clip-rule="evenodd" d="M8.12969 13.1252C8.12584 13.0868 8.09128 13.0868 8.09128 13.0669C8.09365 13.0575 8.09915 13.049 8.10687 13.0431C8.1146 13.0371 8.12412 13.0338 8.13389 13.0339C8.15335 13.0339 8.1723 13.0572 8.19611 13.0723C8.21941 13.0858 8.25436 13.1107 8.25821 13.1402C8.26206 13.1698 8.21984 13.2508 8.17286 13.2509C8.12589 13.2509 8.13982 13.1634 8.13008 13.1247L8.12969 13.1252ZM8.50446 13.0726C8.50446 13.0726 8.42677 13.0959 8.43253 13.0726C8.43828 13.0493 8.45594 13.0435 8.48116 13.0435C8.49397 13.0301 8.5112 13.0218 8.52966 13.0201C8.54023 13.0196 8.5506 13.023 8.55872 13.0298C8.55872 13.0298 8.6112 13.0065 8.62669 13.0201C8.64218 13.0336 8.63066 13.0336 8.64026 13.0493C8.65249 13.0666 8.66052 13.0865 8.6637 13.1075C8.66371 13.123 8.60548 13.156 8.55876 13.1503C8.50448 13.1386 8.51407 13.0823 8.50446 13.0726ZM8.95679 12.985C8.95679 12.985 8.98009 12.9986 8.96077 13.0142C8.9472 13.0278 8.87924 13.0526 8.82087 13.057C8.76263 13.057 8.71028 13.0666 8.71028 13.0473C8.71027 13.028 8.75878 12.9891 8.78783 12.9793C8.79365 12.972 8.80105 12.9661 8.80948 12.9621C8.8179 12.9581 8.82712 12.956 8.83646 12.956C8.85976 12.956 8.95089 12.9463 8.97624 12.9424C8.99953 12.9384 9.01899 12.952 9.0053 12.9715C8.99954 12.985 8.95679 12.985 8.95679 12.985ZM9.09065 12.3855C9.09065 12.3855 9.06148 12.4475 9.02858 12.4475C8.99556 12.4437 8.99555 12.434 8.99555 12.4243C8.99555 12.4107 9.02856 12.3757 9.02459 12.366C9.01499 12.366 8.99157 12.366 8.99553 12.3427C8.99552 12.3233 9.02854 12.3 9.0576 12.3043C9.07955 12.2863 9.10688 12.276 9.13529 12.2752C9.16831 12.2752 9.19737 12.2848 9.19738 12.3043C9.19738 12.3237 9.15899 12.3664 9.14492 12.3762C9.12943 12.3917 9.10998 12.4018 9.09065 12.3858L9.09065 12.3855ZM8.6482 13.5331C8.6482 13.5331 8.6098 13.5371 8.60981 13.5564C8.60981 13.5661 8.61941 13.5661 8.63311 13.5604C8.64099 13.5599 8.64881 13.5586 8.6564 13.5564C8.66024 13.5604 8.66025 13.5797 8.68943 13.5797C8.71339 13.5764 8.73649 13.5685 8.75739 13.5564C8.78069 13.5468 8.80014 13.5369 8.80013 13.5179C8.7904 13.4849 8.77094 13.4693 8.74188 13.4693C8.72699 13.4684 8.71215 13.4718 8.69913 13.4791C8.69913 13.4791 8.6894 13.4596 8.65638 13.4791C8.62336 13.4985 8.6272 13.4985 8.63693 13.5083C8.65434 13.5237 8.64859 13.5339 8.64859 13.5339L8.6482 13.5331ZM8.42886 13.7351C8.42886 13.7254 8.47737 13.7059 8.49094 13.7118C8.50451 13.7157 8.54331 13.7894 8.54331 13.7972C8.54332 13.8069 8.49481 13.8302 8.47535 13.8302C8.4559 13.8302 8.42299 13.7972 8.42299 13.7918C8.42299 13.788 8.44629 13.7822 8.44628 13.7783C8.45204 13.7687 8.42887 13.7452 8.42886 13.7355L8.42886 13.7351ZM8.27519 13.4517C8.28491 13.4478 8.28491 13.4381 8.29848 13.4284C8.30273 13.4255 8.30756 13.4237 8.31262 13.423C8.31768 13.4224 8.32283 13.4229 8.32766 13.4245C8.33108 13.4184 8.33582 13.4131 8.34153 13.4091C8.34724 13.405 8.35378 13.4023 8.36068 13.4011C8.38397 13.3972 8.40343 13.4011 8.39908 13.4108C8.39909 13.44 8.41855 13.4593 8.41856 13.4826C8.41856 13.5059 8.405 13.5351 8.3565 13.5545C8.30799 13.5681 8.24194 13.5681 8.23221 13.5643C8.22248 13.5605 8.21274 13.5216 8.22247 13.5021C8.23219 13.4826 8.25932 13.4614 8.27493 13.4517L8.27519 13.4517Z" fill="#82764F"/>
  <path fill-rule="evenodd" clip-rule="evenodd" d="M8.33698 13.4648C8.33698 13.4648 8.30396 13.4843 8.30396 13.494C8.30104 13.5034 8.29974 13.5132 8.30013 13.5231C8.30013 13.5288 8.34288 13.5192 8.34864 13.5133C8.35056 13.5095 8.33698 13.4749 8.33698 13.4648Z" fill="#6E6342"/>
  <path fill-rule="evenodd" clip-rule="evenodd" d="M8.04811 13.3737C8.06744 13.3776 8.10046 13.3736 8.12568 13.3834C8.14514 13.3931 8.15871 13.4125 8.13927 13.4358C8.11982 13.4591 8.10088 13.4941 8.05774 13.4882C8.00923 13.4844 7.96263 13.4592 7.96263 13.4397C7.96181 13.4274 7.96344 13.4151 7.96744 13.4034C7.97144 13.3917 7.97771 13.381 7.9859 13.3718C8.00536 13.3563 8.01496 13.366 8.04798 13.3737L8.04811 13.3737Z" fill="#585136"/>
  <path fill-rule="evenodd" clip-rule="evenodd" d="M8.02477 13.3931C8.02477 13.3931 7.9627 13.4416 7.94709 13.4651C7.92764 13.4884 7.83257 13.6087 7.80352 13.6339C7.81316 13.6169 7.82416 13.6007 7.8364 13.5854C7.79801 13.61 7.76923 13.647 7.75489 13.6903C7.73162 13.7622 7.8851 13.801 7.98597 13.8301C8.08684 13.8593 8.12589 13.8685 8.12589 13.8685C8.08874 13.8127 8.05684 13.7536 8.03061 13.6919C7.99218 13.6006 7.97234 13.5909 7.99754 13.5481C8.01699 13.5054 8.04616 13.4763 8.04616 13.4433C8.0345 13.4126 8.02477 13.3931 8.02477 13.3931Z" fill="#574F35"/>
  <path fill-rule="evenodd" clip-rule="evenodd" d="M5.81132 13.5471C5.82545 13.5497 5.83994 13.5497 5.85407 13.5471C5.88312 13.5431 6.18607 13.4318 6.50262 13.4517C6.73959 13.4659 6.97448 13.5045 7.20358 13.5667C7.60169 13.6714 8.09685 13.879 8.41726 13.9975C8.50265 14.0303 8.58625 14.0887 8.64769 14.1118C8.89245 14.207 8.90205 14.207 9.04581 14.2322C9.21477 14.2554 9.38756 14.1991 9.56815 14.1602C9.78945 14.1115 10.1681 14.0881 10.5001 14.0395C10.6075 14.0246 10.7133 14.0006 10.8166 13.9676C10.8166 13.9676 10.5526 14.2318 9.91956 14.327C9.66367 14.366 9.40363 14.3693 9.14683 14.337C8.94484 14.3176 8.81094 14.2884 8.70994 14.2594C8.59537 14.2264 8.36034 14.139 8.07104 14.0676C7.86904 14.0151 7.64375 13.9764 7.38556 13.928C6.7486 13.8115 6.05737 13.6778 5.81106 13.5479L5.81132 13.5471Z" fill="#252211"/>
  <path fill-rule="evenodd" clip-rule="evenodd" d="M5.09622 12.3474C4.94265 12.4775 4.77974 12.6018 4.62067 12.7222L4.14115 13.0908C3.97811 13.2112 3.81892 13.3355 3.65575 13.456C3.49258 13.5765 3.32967 13.691 3.15664 13.8017C3.31021 13.6716 3.47312 13.5511 3.63616 13.4327C3.7992 13.3143 3.96825 13.1981 4.12553 13.078L4.60505 12.7089C4.77001 12.5885 4.92921 12.4642 5.09622 12.3476L5.09622 12.3474ZM4.24807 13.7068C4.24807 13.7068 4.42083 13.563 4.63633 13.3611C4.90417 13.1107 5.23227 12.7901 5.33709 12.732L4.24794 13.707L4.24807 13.7068Z" fill="#CFB66C"/>
  <path fill-rule="evenodd" clip-rule="evenodd" d="M4.24807 13.7067C4.33355 13.6213 4.42479 13.5378 4.51603 13.4561L4.65577 13.3358C4.69852 13.2974 4.74714 13.2542 4.78976 13.2115C4.87511 13.1261 4.95867 13.0347 5.04402 12.9473C5.08633 12.9034 5.13106 12.8619 5.178 12.823C5.20148 12.8022 5.22754 12.7846 5.25556 12.7705C5.27898 12.7569 5.30419 12.7321 5.33708 12.7277C5.31776 12.7569 5.29447 12.7705 5.27502 12.7957C5.25173 12.8152 5.23228 12.8385 5.21296 12.8578C5.17022 12.9006 5.12172 12.9394 5.07897 12.9783C4.98773 13.056 4.89265 13.132 4.8014 13.2133C4.71016 13.2946 4.62481 13.3823 4.53344 13.4638C4.43452 13.5474 4.34328 13.629 4.24807 13.7071L4.24807 13.7067ZM5.40907 12.9297C5.40907 12.9297 4.77628 13.5494 4.64613 13.6503L5.40907 12.9297Z" fill="#CFB66C"/>
  <path fill-rule="evenodd" clip-rule="evenodd" d="M5.40913 12.9296C5.35221 12.9955 5.29118 13.0578 5.2264 13.116L5.03445 13.2986C4.97238 13.3607 4.91403 13.4229 4.84813 13.485C4.78018 13.5433 4.71811 13.6003 4.64619 13.654L4.83251 13.4715C4.8947 13.4094 4.96265 13.357 5.02869 13.2948L5.215 13.1122C5.27899 13.0482 5.34118 12.9859 5.40913 12.9296ZM5.43828 13.2655C5.37998 13.4283 5.31127 13.5873 5.23258 13.7413C5.0696 14.0676 4.8251 14.4754 4.71827 14.6833L5.43828 13.2655Z" fill="#CFB66C"/>
  <path fill-rule="evenodd" clip-rule="evenodd" d="M5.43819 13.2657C5.43821 13.3375 5.41877 13.3997 5.39549 13.4618C5.3728 13.5239 5.34693 13.5849 5.31797 13.6443C5.2888 13.7026 5.2558 13.7648 5.22279 13.8211C5.18978 13.8775 5.15101 13.9356 5.12184 13.994L4.92584 14.3396C4.8579 14.4548 4.79188 14.5707 4.72011 14.6814C4.76859 14.5571 4.8346 14.4406 4.89678 14.326C4.96472 14.2108 5.02677 14.0956 5.08869 13.9764C5.11892 13.917 5.14611 13.8562 5.17017 13.794C5.19921 13.7318 5.22825 13.6735 5.25166 13.6172C5.2807 13.5551 5.30398 13.4968 5.33315 13.4406C5.36603 13.3803 5.39328 13.322 5.43793 13.2657L5.43819 13.2657Z" fill="#CFB66C"/>
  <path fill-rule="evenodd" clip-rule="evenodd" d="M6.12996 14.8576C6.12996 14.8576 5.93803 15.112 5.95731 15.4343C6.00962 15.2655 6.0756 15.0071 6.12996 14.8576ZM6.31256 15.1125C6.31256 15.1125 6.24477 15.8038 6.18855 16.1436C6.26806 15.7508 6.28355 15.7838 6.31256 15.1125ZM7.58465 16.1841C7.58465 16.1841 7.29752 17.029 7.29169 17.2637C7.35384 17.0223 7.47402 16.5291 7.58465 16.1834L7.58465 16.1841Z" fill="#DEC270"/>
  <path fill-rule="evenodd" clip-rule="evenodd" d="M8.25635 14.8048C8.25635 14.8048 8.7226 15.5736 9.07235 16.2297C8.97767 15.8995 8.7599 15.2939 8.25635 14.8048Z" fill="#CBAF59"/>
  <path fill-rule="evenodd" clip-rule="evenodd" d="M9.50903 15.9364C9.76504 16.3886 9.99591 16.8547 10.2006 17.3323C10.1617 17.0022 10.0566 16.4372 9.50903 15.9364Z" fill="#E3C677"/>
  <path fill-rule="evenodd" clip-rule="evenodd" d="M13.1908 17.0692C13.2683 17.0206 13.4217 16.7564 13.5557 16.6905C13.6896 16.6225 13.7906 16.6089 13.911 16.4748C14.0313 16.3349 14.0645 16.2495 14.3283 16.1388C14.6973 15.9794 14.4434 15.7736 14.4434 15.7736C14.484 15.7337 14.5275 15.6967 14.5734 15.663C14.6686 15.5911 14.7792 15.5037 14.7696 15.3502C14.7559 15.0921 14.7073 14.7173 14.4955 14.4999C14.7013 14.4571 15.0955 14.4279 15.3403 14.3658C15.6237 14.2937 15.7538 14.1927 15.7538 14.1927C15.7538 14.1927 15.5907 13.9151 15.8547 13.6355C16.1187 13.3559 16.3342 13.1888 16.4933 12.876C16.3108 12.8528 16.0325 12.7558 15.3224 13.0259C15.3607 13.0439 15.3978 13.0646 15.4331 13.0879C15.4331 13.0879 14.9963 13.2085 14.8371 13.3425C14.5594 13.5775 14.5245 13.7697 14.2236 13.9136C13.9227 14.0574 13.6198 14.0186 13.3694 14.1351C13.1191 14.2517 13.0821 14.3507 12.9907 14.3935C13.0102 14.4168 12.9869 14.4556 13.0238 14.4886C13.0005 14.5216 12.8646 14.743 12.7268 14.743C12.7404 14.7955 12.8568 14.8343 12.8568 14.8343C12.8568 14.8343 12.7715 14.8965 12.554 14.912C12.6646 15.0272 12.7696 15.1527 13.059 15.3352C13.0357 15.3837 12.9385 15.4557 12.9775 15.5469C13.0203 15.6382 13.1311 15.7624 13.5737 15.8633C13.3484 15.873 13.0845 15.9255 12.7289 15.8771C12.3735 15.8345 12.3153 15.8093 12.0959 15.8637C12.1192 15.887 12.1813 15.887 12.2357 15.949C12.1775 15.9529 11.8124 15.9064 11.6881 16.0696C11.5581 16.2385 11.5019 16.5163 11.5117 16.7027C11.4437 16.7357 11.3777 16.794 11.4107 16.9144C11.4438 17.0348 11.6166 17.0736 11.7274 17.1492C11.838 17.2307 11.8477 17.2597 11.9527 17.2404C12.0632 17.2171 12.2263 17.1064 12.3215 17.1064C12.4167 17.1064 12.4846 17.1782 12.4846 17.1782C12.4846 17.1782 12.7429 17.0538 12.7681 17.0771C12.7914 17.1004 12.772 17.2499 12.7972 17.2732C12.8228 17.2907 13.1137 17.1178 13.1914 17.0692L13.1908 17.0692Z" fill="#ECD592"/>
</svg>