<svg xmlns="http://www.w3.org/2000/svg" width="25" height="25" viewBox="0 0 25 25" fill="none">
  <path d="M10.9703 20.8577C10.7934 21.0578 10.5401 21.1723 10.274 21.1724C9.67514 21.1725 9.23133 20.6122 9.36456 20.0242L10.6349 14.4168C10.6633 14.2916 10.5688 14.1723 10.4413 14.1723L6.21448 14.1735C5.44705 14.1737 5.0115 13.2886 5.47643 12.6737C7.4773 10.4453 9.66507 7.83497 13.5997 3.48022C13.7769 3.2841 14.029 3.17136 14.2923 3.17129C14.8937 3.17113 15.3393 3.73376 15.2056 4.32427L13.9363 9.92684C13.9079 10.0521 14.0024 10.1714 14.1299 10.1713L18.3553 10.1702C19.1227 10.17 19.5583 11.0551 19.0933 11.67L10.9703 20.8577Z" fill="#F7DA69"/>
</svg>