<svg xmlns="http://www.w3.org/2000/svg" width="25" height="23" viewBox="0 0 25 23" fill="none">
  <g clip-path="url(#clip0_59_7363)">
    <path fill-rule="evenodd" clip-rule="evenodd" d="M4.67653 0.332946L0.303091 10.0202C0.286448 10.0562 0.281182 10.0969 0.288063 10.1363C0.294943 10.1757 0.313609 10.2118 0.341331 10.2392L12.1632 22.17C12.1967 22.2039 12.2415 22.2228 12.288 22.2228C12.3345 22.2228 12.3792 22.2039 12.4128 22.1699L24.2282 10.2335C24.2559 10.2061 24.2746 10.17 24.2814 10.1306C24.2883 10.0912 24.283 10.0505 24.2663 10.0145L19.8877 0.329608C19.8735 0.297082 19.8508 0.269531 19.8222 0.250248C19.7936 0.230965 19.7604 0.220766 19.7264 0.22087L4.83913 0.224866C4.80502 0.224428 4.77152 0.234399 4.74267 0.253576C4.71382 0.272754 4.69085 0.300319 4.67653 0.332946Z" fill="#50AF95"/>
    <path fill-rule="evenodd" clip-rule="evenodd" d="M13.8034 11.0112C13.7186 11.0179 13.2802 11.0456 12.3023 11.0459C11.5246 11.0461 10.9723 11.0216 10.7786 11.012C7.77281 10.8735 5.52913 10.3227 5.52896 9.66258C5.52878 9.00244 7.77216 8.45122 10.7779 8.30885L10.7784 10.4629C10.975 10.4777 11.5378 10.5126 12.3156 10.5124C13.2489 10.5121 13.7163 10.471 13.8004 10.4628L13.7999 8.30953C16.7993 8.44954 19.038 9.0003 19.0382 9.65895C19.0384 10.3176 16.8006 10.8696 13.8006 11.0104L13.8034 11.0112ZM13.8026 8.08675L13.8021 6.15922L17.988 6.1581L17.9872 3.21875L6.59066 3.22181L6.59145 6.16116L10.7766 6.16003L10.7771 8.08681C7.37544 8.25239 4.81746 8.96314 4.81769 9.81402C4.81792 10.6649 7.37628 11.3735 10.778 11.538L10.7797 17.7147L13.8045 17.7139L13.8029 11.535C17.1967 11.3694 19.7505 10.6594 19.7502 9.80927C19.75 8.95913 17.198 8.2505 13.8019 8.086L13.8026 8.08675Z" fill="#4B4C5A"/>
  </g>
  <defs>
    <clipPath id="clip0_59_7363">
      <rect width="24" height="22" fill="white" transform="translate(0.281982 0.226074) rotate(-0.0153792)"/>
    </clipPath>
  </defs>
</svg>